M48
;GenerationSoftware,Autodesk,EAGLE,9.6.0*%
;CreationDate,2020-10-20T10:32:12Z*%
FMAT,2
ICI,OFF
METRIC,TZ,000.000
T3C0.200
T2C0.300
T1C1.016
%
G90
M71
T1
X77142Y60382
X65019Y9468
X20003Y9468
X20003Y6927
X17463Y9468
X17463Y6927
X14922Y9468
X14922Y6927
X12382Y9468
X12382Y6927
X4763Y9468
X4763Y6927
X2223Y9468
X2223Y6927
X18381Y15262
X6351Y20326
X9843Y9468
X9843Y6927
X7302Y9468
X7302Y6927
X42509Y9468
X42509Y6927
X39969Y9468
X39969Y6927
X37429Y9468
X37429Y6927
X34889Y9468
X34889Y6927
X27269Y9468
X27269Y6927
X24729Y9468
X24729Y6927
X40888Y15262
X28858Y20326
X32349Y9468
X32349Y6927
X29809Y9468
X29809Y6927
X65019Y6927
X62479Y9468
X62479Y6927
X59939Y9468
X59939Y6927
X57399Y9468
X57399Y6927
X49779Y9468
X49779Y6927
X47239Y9468
X47239Y6927
X63397Y15262
X51367Y20326
X54859Y9468
X54859Y6927
X52319Y9468
X52319Y6927
X87526Y9468
X87526Y6927
X84986Y9468
X84986Y6927
X82446Y9468
X82446Y6927
X79906Y9468
X79906Y6927
X72286Y9468
X72286Y6927
X69746Y9468
X69746Y6927
X85904Y15262
X73874Y20326
X77366Y9468
X77366Y6927
X74826Y9468
X74826Y6927
X110035Y9468
X110035Y6927
X107495Y9468
X107495Y6927
X104955Y9468
X104955Y6927
X102415Y9468
X102415Y6927
X94795Y9468
X94795Y6927
X92255Y9468
X92255Y6927
X108414Y15262
X96384Y20326
X99875Y9468
X99875Y6927
X97335Y9468
X97335Y6927
X132542Y9468
X132542Y6927
X130002Y9468
X130002Y6927
X127462Y9468
X127462Y6927
X124922Y9468
X124922Y6927
X117302Y9468
X117302Y6927
X114762Y9468
X114762Y6927
X130921Y15262
X118891Y20326
X122382Y9468
X122382Y6927
X119842Y9468
X119842Y6927
X155052Y9468
X155052Y6927
X152512Y9468
X152512Y6927
X149972Y9468
X149972Y6927
X147432Y9468
X147432Y6927
X139812Y9468
X139812Y6927
X137272Y9468
X137272Y6927
X153430Y15262
X141400Y20326
X144892Y9468
X144892Y6927
X142352Y9468
X142352Y6927
X177559Y9468
X177559Y6927
X175019Y9468
X175019Y6927
X172479Y9468
X172479Y6927
X169939Y9468
X169939Y6927
X162319Y9468
X162319Y6927
X159779Y9468
X159779Y6927
X175937Y15262
X163907Y20326
X167399Y9468
X167399Y6927
X164859Y9468
X164859Y6927
X1996Y60382
X1996Y62922
X4536Y60382
X4536Y62922
X7076Y60382
X7076Y62922
X9616Y60382
X9616Y62922
X17236Y60382
X17236Y62922
X19776Y60382
X19776Y62922
X3618Y54588
X15648Y49524
X12156Y60382
X12156Y62922
X14696Y60382
X14696Y62922
X24506Y60382
X24506Y62922
X27046Y60382
X27046Y62922
X29586Y60382
X29586Y62922
X32126Y60382
X32126Y62922
X39746Y60382
X39746Y62922
X42286Y60382
X42286Y62922
X26127Y54588
X38157Y49524
X34666Y60382
X34666Y62922
X37206Y60382
X37206Y62922
X47013Y60382
X47013Y62922
X49553Y60382
X49553Y62922
X52093Y60382
X52093Y62922
X54633Y60382
X54633Y62922
X62253Y60382
X62253Y62922
X64793Y60382
X64793Y62922
X48634Y54588
X60664Y49524
X57173Y60382
X57173Y62922
X59713Y60382
X59713Y62922
X69522Y60382
X69522Y62922
X72062Y60382
X72062Y62922
X74602Y60382
X74602Y62922
X77142Y62922
X84762Y60382
X84762Y62922
X87302Y60382
X87302Y62922
X71144Y54588
X83174Y49524
X79682Y60382
X79682Y62922
X82222Y60382
X82222Y62922
X92029Y60382
X92029Y62922
X94569Y60382
X94569Y62922
X97109Y60382
X97109Y62922
X99649Y60382
X99649Y62922
X107269Y60382
X107269Y62922
X109809Y60382
X109809Y62922
X93651Y54588
X105681Y49524
X102189Y60382
X102189Y62922
X104729Y60382
X104729Y62922
X114539Y60382
X114539Y62922
X117079Y60382
X117079Y62922
X119619Y60382
X119619Y62922
X122159Y60382
X122159Y62922
X129779Y60382
X129779Y62922
X132319Y60382
X132319Y62922
X116160Y54588
X128190Y49524
X124699Y60382
X124699Y62922
X127239Y60382
X127239Y62922
X137046Y60382
X137046Y62922
X139586Y60382
X139586Y62922
X142126Y60382
X142126Y62922
X144666Y60382
X144666Y62922
X152286Y60382
X152286Y62922
X154826Y60382
X154826Y62922
X138667Y54588
X150697Y49524
X147206Y60382
X147206Y62922
X149746Y60382
X149746Y62922
X159553Y60382
X159553Y62922
X162093Y60382
X162093Y62922
X164633Y60382
X164633Y62922
X167173Y60382
X167173Y62922
X174793Y60382
X174793Y62922
X177333Y60382
X177333Y62922
X161174Y54588
X173204Y49524
X169713Y60382
X169713Y62922
X172253Y60382
X172253Y62922
T2
X46314Y64452
X48410Y66739
X66317Y53848
X61427Y54610
X49997Y55880
X47965Y58166
X60983Y64452
X48473Y65341
X46568Y58420
X56601Y56134
X53426Y53340
X52156Y53340
X51394Y64399
X57363Y53213
X50696Y64008
X56093Y53213
X50061Y66167
X50950Y66167
X61554Y65532
X56347Y64579
X70221Y51435
X88255Y59118
X72380Y52070
X81270Y55245
X86985Y65977
X83175Y66548
X78031Y66485
X68824Y64452
X70919Y66739
X88826Y53848
X83937Y54610
X72507Y55880
X70475Y58166
X83492Y64452
X80889Y64452
X70983Y65341
X69078Y58420
X79111Y56134
X75936Y53340
X74666Y53340
X73904Y64399
X79873Y53213
X73205Y64008
X78603Y53213
X72570Y66167
X73459Y66167
X84064Y65532
X78857Y64579
X92728Y51435
X110762Y59118
X94887Y52070
X103777Y55245
X109492Y65977
X105682Y66548
X100538Y66485
X91331Y64452
X93426Y66739
X111333Y53848
X106444Y54610
X95014Y55880
X92982Y58166
X105999Y64452
X103396Y64452
X93490Y65341
X91585Y58420
X101618Y56134
X98443Y53340
X97173Y53340
X96411Y64399
X102380Y53213
X95712Y64008
X101110Y53213
X95077Y66167
X95966Y66167
X106571Y65532
X101364Y64579
X115237Y51435
X133271Y59118
X117396Y52070
X126286Y55245
X132001Y65977
X128191Y66548
X123048Y66485
X113840Y64452
X115936Y66739
X133843Y53848
X128953Y54610
X117523Y55880
X115491Y58166
X128509Y64452
X125905Y64452
X115999Y65341
X114094Y58420
X124127Y56134
X120952Y53340
X119682Y53340
X118920Y64399
X124889Y53213
X118222Y64008
X123619Y53213
X117587Y66167
X118476Y66167
X129080Y65532
X123873Y64579
X76159Y5398
X155778Y59118
X139903Y52070
X148793Y55245
X154508Y65977
X150698Y66548
X145555Y66485
X136347Y64452
X138443Y66739
X156350Y53848
X151460Y54610
X140030Y55880
X137998Y58166
X151016Y64452
X148412Y64452
X138506Y65341
X136601Y58420
X146634Y56134
X143459Y53340
X142189Y53340
X141427Y64399
X147396Y53213
X140729Y64008
X146126Y53213
X140094Y66167
X140983Y66167
X151587Y65532
X146380Y64579
X160251Y51435
X178285Y59118
X162410Y52070
X171300Y55245
X177015Y65977
X173205Y66548
X168062Y66485
X158854Y64452
X160950Y66739
X178857Y53848
X173967Y54610
X162537Y55880
X160505Y58166
X173523Y64452
X170919Y64452
X161013Y65341
X159108Y58420
X169141Y56134
X165966Y53340
X164696Y53340
X163934Y64399
X169903Y53213
X163236Y64008
X168633Y53213
X162601Y66167
X163490Y66167
X174094Y65532
X168887Y64579
X19304Y18415
X1270Y10732
X17145Y17780
X8255Y14605
X2540Y3873
X6350Y3302
X11493Y3365
X20701Y5398
X18606Y3111
X698Y16002
X5588Y15240
X17018Y13970
X19050Y11684
X6032Y5398
X8636Y5398
X18542Y4509
X20447Y11430
X10414Y13716
X13589Y16510
X14859Y16510
X15621Y5451
X9652Y16637
X16319Y5842
X10922Y16637
X16955Y3683
X16065Y3683
X5461Y4318
X10668Y5271
X41811Y18415
X23777Y10732
X39652Y17780
X30762Y14605
X25047Y3873
X28857Y3302
X34000Y3365
X43208Y5398
X137744Y51435
X41112Y3111
X23205Y16002
X28095Y15240
X39525Y13970
X41557Y11684
X28539Y5398
X31143Y5398
X41049Y4509
X42954Y11430
X32921Y13716
X36096Y16510
X37366Y16510
X38128Y5451
X32159Y16637
X38826Y5842
X33429Y16637
X39461Y3683
X38572Y3683
X27968Y4318
X33175Y5271
X64320Y18415
X46286Y10732
X62161Y17780
X53271Y14605
X47556Y3873
X51366Y3302
X56510Y3365
X65717Y5398
X63622Y3111
X45715Y16002
X50604Y15240
X62034Y13970
X64066Y11684
X51049Y5398
X53652Y5398
X63558Y4509
X65463Y11430
X55430Y13716
X58605Y16510
X59875Y16510
X60637Y5451
X54668Y16637
X61336Y5842
X55938Y16637
X61971Y3683
X61082Y3683
X50477Y4318
X55684Y5271
X86827Y18415
X68793Y10732
X84668Y17780
X75778Y14605
X70063Y3873
X73873Y3302
X79017Y3365
X88224Y5398
X86129Y3111
X68222Y16002
X73111Y15240
X84541Y13970
X86573Y11684
X73556Y5398
X86065Y4509
X87970Y11430
X77937Y13716
X81112Y16510
X82382Y16510
X83144Y5451
X77175Y16637
X83843Y5842
X78445Y16637
X84478Y3683
X83589Y3683
X72984Y4318
X78191Y5271
X109337Y18415
X91303Y10732
X107178Y17780
X98288Y14605
X92573Y3873
X96383Y3302
X101526Y3365
X110734Y5398
X108638Y3111
X90731Y16002
X95621Y15240
X107051Y13970
X109083Y11684
X96065Y5398
X98669Y5398
X108575Y4509
X110480Y11430
X100447Y13716
X103622Y16510
X104892Y16510
X105654Y5451
X99685Y16637
X106352Y5842
X100955Y16637
X106987Y3683
X106098Y3683
X95494Y4318
X100701Y5271
X131844Y18415
X113810Y10732
X129685Y17780
X120795Y14605
X115080Y3873
X118890Y3302
X124033Y3365
X133241Y5398
X131145Y3111
X113238Y16002
X118128Y15240
X129558Y13970
X131590Y11684
X118572Y5398
X121176Y5398
X131082Y4509
X132987Y11430
X122954Y13716
X126129Y16510
X127399Y16510
X128161Y5451
X122192Y16637
X128859Y5842
X123462Y16637
X129494Y3683
X128605Y3683
X118001Y4318
X123208Y5271
X154353Y18415
X136319Y10732
X152194Y17780
X143304Y14605
X137589Y3873
X141399Y3302
X146543Y3365
X155750Y5398
X153655Y3111
X135748Y16002
X140637Y15240
X152067Y13970
X154099Y11684
X141082Y5398
X143685Y5398
X153591Y4509
X155496Y11430
X145463Y13716
X148638Y16510
X149908Y16510
X150670Y5451
X144701Y16637
X151369Y5842
X145971Y16637
X152004Y3683
X151115Y3683
X140510Y4318
X145717Y5271
X176860Y18415
X158826Y10732
X174701Y17780
X165811Y14605
X160096Y3873
X163906Y3302
X169050Y3365
X178257Y5398
X58379Y64452
X176162Y3111
X158255Y16002
X163144Y15240
X174574Y13970
X176606Y11684
X163589Y5398
X166192Y5398
X176098Y4509
X178003Y11430
X167970Y13716
X171145Y16510
X172415Y16510
X173177Y5451
X167208Y16637
X173876Y5842
X168478Y16637
X174511Y3683
X173622Y3683
X163017Y4318
X168224Y5271
X2695Y51435
X20729Y59118
X4854Y52070
X13744Y55245
X19459Y65977
X15649Y66548
X10505Y66485
X1298Y64452
X3393Y66739
X21300Y53848
X16411Y54610
X4981Y55880
X2949Y58166
X15966Y64452
X13363Y64452
X3457Y65341
X1552Y58420
X11585Y56134
X8410Y53340
X7140Y53340
X6378Y64399
X12347Y53213
X5679Y64008
X11077Y53213
X5044Y66167
X5933Y66167
X16538Y65532
X11331Y64579
X25204Y51435
X43238Y59118
X27363Y52070
X36253Y55245
X41968Y65977
X38158Y66548
X33015Y66485
X23807Y64452
X25903Y66739
X43810Y53848
X38920Y54610
X27490Y55880
X25458Y58166
X38476Y64452
X35872Y64452
X25966Y65341
X24061Y58420
X34094Y56134
X30919Y53340
X29649Y53340
X28887Y64399
X34856Y53213
X28189Y64008
X33586Y53213
X27554Y66167
X28443Y66167
X39047Y65532
X33840Y64579
X47711Y51435
X65745Y59118
X49870Y52070
X58760Y55245
X64475Y65977
X60665Y66548
X55522Y66485
T3
X117421Y48860
X119521Y50160
X9079Y48860
X4879Y48860
X6979Y50160
X125460Y20990
X129660Y20990
X127560Y19690
X170476Y20990
X174676Y20990
X172576Y19690
X147969Y20990
X152169Y20990
X150069Y19690
X54095Y48860
X49895Y48860
X51995Y50160
X80443Y20990
X84643Y20990
X82543Y19690
X144128Y48860
X139928Y48860
X142028Y50160
X99112Y48860
X94912Y48860
X97012Y50160
X12920Y20990
X17120Y20990
X15020Y19690
X35427Y20990
X39627Y20990
X37527Y19690
X31588Y48860
X27388Y48860
X29488Y50160
X102953Y20990
X107153Y20990
X105053Y19690
X57936Y20990
X62136Y20990
X60036Y19690
X166635Y48860
X162435Y48860
X164535Y50160
X76605Y48860
X72405Y48860
X74505Y50160
X121621Y48860
M30