M48
;GenerationSoftware,Autodesk,EAGLE,9.6.0*%
;CreationDate,2020-10-22T11:57:43Z*%
FMAT,2
ICI,OFF
METRIC,TZ,000.000
T3C0.200
T2C0.300
T1C1.016
%
G90
M71
T1
X69522Y60382
X39969Y6927
X20003Y9468
X20003Y6927
X17463Y9468
X17463Y6927
X14922Y9468
X14922Y6927
X12382Y9468
X12382Y6927
X4763Y9468
X4763Y6927
X2223Y9468
X2223Y6927
X2540Y16510
X2540Y20320
X9843Y9468
X9843Y6927
X7302Y9468
X7302Y6927
X42509Y9468
X42509Y6927
X39969Y9468
X37429Y9468
X37429Y6927
X34889Y9468
X34889Y6927
X27269Y9468
X27269Y6927
X24729Y9468
X24729Y6927
X25047Y16510
X25047Y20320
X32349Y9468
X32349Y6927
X29809Y9468
X29809Y6927
X65019Y9468
X65019Y6927
X62479Y9468
X62479Y6927
X59939Y9468
X59939Y6927
X57399Y9468
X57399Y6927
X49779Y9468
X49779Y6927
X47239Y9468
X47239Y6927
X47556Y16510
X47556Y20320
X54859Y9468
X54859Y6927
X52319Y9468
X52319Y6927
X87526Y9468
X87526Y6927
X84986Y9468
X84986Y6927
X82446Y9468
X82446Y6927
X79906Y9468
X79906Y6927
X72286Y9468
X72286Y6927
X69746Y9468
X69746Y6927
X70063Y16510
X70063Y20320
X77366Y9468
X77366Y6927
X74826Y9468
X74826Y6927
X110035Y9468
X110035Y6927
X107495Y9468
X107495Y6927
X104955Y9468
X104955Y6927
X102415Y9468
X102415Y6927
X94795Y9468
X94795Y6927
X92255Y9468
X92255Y6927
X92573Y16510
X92573Y20320
X99875Y9468
X99875Y6927
X97335Y9468
X97335Y6927
X132542Y9468
X132542Y6927
X130002Y9468
X130002Y6927
X127462Y9468
X127462Y6927
X124922Y9468
X124922Y6927
X117302Y9468
X117302Y6927
X114762Y9468
X114762Y6927
X115080Y16510
X115080Y20320
X122382Y9468
X122382Y6927
X119842Y9468
X119842Y6927
X155052Y9468
X155052Y6927
X152512Y9468
X152512Y6927
X149972Y9468
X149972Y6927
X147432Y9468
X147432Y6927
X139812Y9468
X139812Y6927
X137272Y9468
X137272Y6927
X137589Y16510
X137589Y20320
X144892Y9468
X144892Y6927
X142352Y9468
X142352Y6927
X177559Y9468
X177559Y6927
X175019Y9468
X175019Y6927
X172479Y9468
X172479Y6927
X169939Y9468
X169939Y6927
X162319Y9468
X162319Y6927
X159779Y9468
X159779Y6927
X160096Y16510
X160096Y20320
X167399Y9468
X167399Y6927
X164859Y9468
X164859Y6927
X1996Y60382
X1996Y62922
X4536Y60382
X4536Y62922
X7076Y60382
X7076Y62922
X9616Y60382
X9616Y62922
X17236Y60382
X17236Y62922
X19776Y60382
X19776Y62922
X19459Y53340
X19459Y49530
X12156Y60382
X12156Y62922
X14696Y60382
X14696Y62922
X24506Y60382
X24506Y62922
X27046Y60382
X27046Y62922
X29586Y60382
X29586Y62922
X32126Y60382
X32126Y62922
X39746Y60382
X39746Y62922
X42286Y60382
X42286Y62922
X41968Y53340
X41968Y49530
X34666Y60382
X34666Y62922
X37206Y60382
X37206Y62922
X47013Y60382
X47013Y62922
X49553Y60382
X49553Y62922
X52093Y60382
X52093Y62922
X54633Y60382
X54633Y62922
X62253Y60382
X62253Y62922
X64793Y60382
X64793Y62922
X64475Y53340
X64475Y49530
X57173Y60382
X57173Y62922
X59713Y60382
X59713Y62922
X69522Y62922
X72062Y60382
X72062Y62922
X74602Y60382
X74602Y62922
X77142Y60382
X77142Y62922
X84762Y60382
X84762Y62922
X87302Y60382
X87302Y62922
X86985Y53340
X86985Y49530
X79682Y60382
X79682Y62922
X82222Y60382
X82222Y62922
X92029Y60382
X92029Y62922
X94569Y60382
X94569Y62922
X97109Y60382
X97109Y62922
X99649Y60382
X99649Y62922
X107269Y60382
X107269Y62922
X109809Y60382
X109809Y62922
X109492Y53340
X109492Y49530
X102189Y60382
X102189Y62922
X104729Y60382
X104729Y62922
X114539Y60382
X114539Y62922
X117079Y60382
X117079Y62922
X119619Y60382
X119619Y62922
X122159Y60382
X122159Y62922
X129779Y60382
X129779Y62922
X132319Y60382
X132319Y62922
X132001Y53340
X132001Y49530
X124699Y60382
X124699Y62922
X127239Y60382
X127239Y62922
X137046Y60382
X137046Y62922
X139586Y60382
X139586Y62922
X142126Y60382
X142126Y62922
X144666Y60382
X144666Y62922
X152286Y60382
X152286Y62922
X154826Y60382
X154826Y62922
X154508Y53340
X154508Y49530
X147206Y60382
X147206Y62922
X149746Y60382
X149746Y62922
X159553Y60382
X159553Y62922
X162093Y60382
X162093Y62922
X164633Y60382
X164633Y62922
X167173Y60382
X167173Y62922
X174793Y60382
X174793Y62922
X177333Y60382
X177333Y62922
X177015Y53340
X177015Y49530
X169713Y60382
X169713Y62922
X172253Y60382
X172253Y62922
T2
X25903Y66739
X43810Y53848
X39428Y54610
X27998Y54610
X25458Y57848
X38476Y64452
X35872Y64452
X25966Y65341
X35809Y50736
X27808Y58356
X31808Y54610
X24061Y58420
X34094Y56134
X31618Y53276
X30348Y53276
X28887Y64399
X35428Y53276
X34158Y53276
X28295Y59123
X27554Y66167
X28443Y66167
X39047Y65532
X33840Y64579
X47711Y51435
X65745Y59118
X58125Y54610
X64475Y65977
X60665Y66548
X55522Y66485
X46314Y64452
X48410Y66739
X66317Y53848
X61935Y54610
X50505Y54610
X47965Y57848
X60983Y64452
X58379Y64452
X48473Y65341
X58316Y50736
X50315Y58356
X54315Y54610
X46568Y58420
X56601Y56134
X54125Y53276
X52855Y53276
X51394Y64399
X57935Y53276
X56665Y53276
X50802Y59123
X50061Y66167
X50950Y66167
X61554Y65532
X56347Y64579
X70221Y51435
X88255Y59118
X72380Y52070
X80635Y54610
X86985Y65977
X83175Y66548
X78031Y66485
X68824Y64452
X70919Y66739
X88826Y53848
X84445Y54610
X73015Y54610
X70475Y57848
X83492Y64452
X80889Y64452
X70983Y65341
X80825Y50736
X72824Y58356
X76825Y54610
X69078Y58420
X79111Y56134
X76634Y53276
X75364Y53276
X73904Y64399
X80444Y53276
X79174Y53276
X73311Y59123
X72570Y66167
X73459Y66167
X84064Y65532
X78857Y64579
X92728Y51435
X110762Y59118
X94887Y52070
X103142Y54610
X109492Y65977
X105682Y66548
X100538Y66485
X91331Y64452
X93426Y66739
X111333Y53848
X106952Y54610
X95522Y54610
X92982Y57848
X105999Y64452
X103396Y64452
X93490Y65341
X103332Y50736
X95331Y58356
X99332Y54610
X91585Y58420
X101618Y56134
X99141Y53276
X97871Y53276
X96411Y64399
X102951Y53276
X101681Y53276
X95818Y59123
X95077Y66167
X95966Y66167
X106571Y65532
X101364Y64579
X115237Y51435
X133271Y59118
X117396Y52070
X125651Y54610
X132001Y65977
X128191Y66548
X123048Y66485
X113840Y64452
X115936Y66739
X133843Y53848
X129461Y54610
X118031Y54610
X115491Y57848
X84033Y15240
X125905Y64452
X115999Y65341
X125842Y50736
X117841Y58356
X121841Y54610
X114094Y58420
X124127Y56134
X121651Y53276
X120381Y53276
X118920Y64399
X125461Y53276
X124191Y53276
X118328Y59123
X117587Y66167
X118476Y66167
X129080Y65532
X123873Y64579
X137744Y51435
X155778Y59118
X139903Y52070
X148158Y54610
X154508Y65977
X150698Y66548
X145555Y66485
X136347Y64452
X138443Y66739
X156350Y53848
X151968Y54610
X140538Y54610
X137998Y57848
X151016Y64452
X148412Y64452
X138506Y65341
X148349Y50736
X140348Y58356
X144348Y54610
X136601Y58420
X146634Y56134
X144158Y53276
X142888Y53276
X141427Y64399
X147968Y53276
X146698Y53276
X140835Y59123
X140094Y66167
X140983Y66167
X151587Y65532
X146380Y64579
X160251Y51435
X178285Y59118
X162410Y52070
X170665Y54610
X177015Y65977
X173205Y66548
X168062Y66485
X158854Y64452
X160950Y66739
X178857Y53848
X174475Y54610
X163045Y54610
X160505Y57848
X173523Y64452
X170919Y64452
X161013Y65341
X170856Y50736
X162855Y58356
X166855Y54610
X159108Y58420
X169141Y56134
X166665Y53276
X165395Y53276
X163934Y64399
X170475Y53276
X169205Y53276
X163342Y59123
X162601Y66167
X163490Y66167
X174094Y65532
X168887Y64579
X19304Y18415
X1270Y10732
X17145Y17780
X8890Y15240
X2540Y3873
X6350Y3302
X11493Y3365
X20701Y5398
X18606Y3111
X698Y16002
X5080Y15240
X16510Y15240
X19050Y12001
X6032Y5398
X8636Y5398
X18542Y4509
X8700Y19114
X16701Y11493
X12700Y15240
X20447Y11430
X10414Y13716
X128509Y64452
X12890Y16574
X14160Y16574
X15621Y5451
X9081Y16574
X10351Y16574
X16213Y10727
X16955Y3683
X16065Y3683
X5461Y4318
X10668Y5271
X41811Y18415
X23777Y10732
X39652Y17780
X31397Y15240
X25047Y3873
X28857Y3302
X34000Y3365
X43208Y5398
X41112Y3111
X23205Y16002
X27587Y15240
X39017Y15240
X41557Y12001
X28539Y5398
X31143Y5398
X41049Y4509
X31206Y19114
X39207Y11493
X35207Y15240
X42954Y11430
X32921Y13716
X35397Y16574
X36667Y16574
X38128Y5451
X31587Y16574
X32857Y16574
X38720Y10727
X39461Y3683
X38572Y3683
X27968Y4318
X33175Y5271
X64320Y18415
X46286Y10732
X62161Y17780
X53906Y15240
X47556Y3873
X51366Y3302
X56510Y3365
X65717Y5398
X63622Y3111
X45715Y16002
X50096Y15240
X61526Y15240
X64066Y12001
X51049Y5398
X53652Y5398
X63558Y4509
X53716Y19114
X61717Y11493
X57716Y15240
X65463Y11430
X55430Y13716
X57907Y16574
X59177Y16574
X60637Y5451
X54097Y16574
X55367Y16574
X61230Y10727
X61971Y3683
X61082Y3683
X50477Y4318
X55684Y5271
X86827Y18415
X68793Y10732
X84668Y17780
X76413Y15240
X70063Y3873
X73873Y3302
X79017Y3365
X88224Y5398
X86129Y3111
X68222Y16002
X72603Y15240
X86573Y12001
X73556Y5398
X76159Y5398
X86065Y4509
X76223Y19114
X84224Y11493
X80223Y15240
X87970Y11430
X77937Y13716
X80414Y16574
X81684Y16574
X83144Y5451
X76604Y16574
X77874Y16574
X83737Y10727
X84478Y3683
X83589Y3683
X72984Y4318
X78191Y5271
X109337Y18415
X91303Y10732
X107178Y17780
X98923Y15240
X92573Y3873
X96383Y3302
X101526Y3365
X110734Y5398
X108638Y3111
X90731Y16002
X95113Y15240
X106543Y15240
X109083Y12001
X96065Y5398
X98669Y5398
X108575Y4509
X98732Y19114
X106733Y11493
X102733Y15240
X110480Y11430
X100447Y13716
X102923Y16574
X104193Y16574
X105654Y5451
X99113Y16574
X100383Y16574
X106246Y10727
X106987Y3683
X106098Y3683
X95494Y4318
X100701Y5271
X131844Y18415
X113810Y10732
X129685Y17780
X121430Y15240
X115080Y3873
X118890Y3302
X124033Y3365
X133241Y5398
X131145Y3111
X113238Y16002
X117620Y15240
X129050Y15240
X131590Y12001
X118572Y5398
X121176Y5398
X131082Y4509
X121239Y19114
X129240Y11493
X125240Y15240
X132987Y11430
X122954Y13716
X125430Y16574
X126700Y16574
X128161Y5451
X121620Y16574
X122890Y16574
X128753Y10727
X129494Y3683
X128605Y3683
X118001Y4318
X123208Y5271
X154353Y18415
X136319Y10732
X152194Y17780
X143939Y15240
X137589Y3873
X141399Y3302
X146543Y3365
X155750Y5398
X153655Y3111
X135748Y16002
X140129Y15240
X151559Y15240
X49870Y52070
X154099Y12001
X141082Y5398
X143685Y5398
X153591Y4509
X143749Y19114
X151750Y11493
X147749Y15240
X155496Y11430
X145463Y13716
X147940Y16574
X149210Y16574
X150670Y5451
X144130Y16574
X145400Y16574
X151263Y10727
X152004Y3683
X151115Y3683
X140510Y4318
X145717Y5271
X176860Y18415
X158826Y10732
X174701Y17780
X166446Y15240
X160096Y3873
X163906Y3302
X169050Y3365
X178257Y5398
X176162Y3111
X158255Y16002
X162636Y15240
X174066Y15240
X176606Y12001
X163589Y5398
X166192Y5398
X176098Y4509
X166256Y19114
X174257Y11493
X170256Y15240
X178003Y11430
X167970Y13716
X170447Y16574
X171717Y16574
X173177Y5451
X166637Y16574
X167907Y16574
X173770Y10727
X174511Y3683
X173622Y3683
X163017Y4318
X168224Y5271
X2695Y51435
X20729Y59118
X4854Y52070
X13109Y54610
X19459Y65977
X15649Y66548
X10505Y66485
X1298Y64452
X3393Y66739
X21300Y53848
X16919Y54610
X5489Y54610
X2949Y57848
X15966Y64452
X13363Y64452
X3457Y65341
X13299Y50736
X5298Y58356
X9299Y54610
X1552Y58420
X11585Y56134
X9108Y53276
X7838Y53276
X6378Y64399
X12918Y53276
X11648Y53276
X5785Y59123
X5044Y66167
X5933Y66167
X16538Y65532
X11331Y64579
X25204Y51435
X43238Y59118
X27363Y52070
X35618Y54610
X41968Y65977
X38158Y66548
X33015Y66485
X23807Y64452
T3
X117421Y48860
X119521Y50160
X9079Y48860
X4879Y48860
X6979Y50160
X125460Y20990
X129660Y20990
X127560Y19690
X170476Y20990
X174676Y20990
X172576Y19690
X147969Y20990
X152169Y20990
X150069Y19690
X54095Y48860
X49895Y48860
X51995Y50160
X80443Y20990
X84643Y20990
X82543Y19690
X144128Y48860
X139928Y48860
X142028Y50160
X99112Y48860
X94912Y48860
X97012Y50160
X12920Y20990
X17120Y20990
X15020Y19690
X35427Y20990
X39627Y20990
X37527Y19690
X31588Y48860
X27388Y48860
X29488Y50160
X102953Y20990
X107153Y20990
X105053Y19690
X57936Y20990
X62136Y20990
X60036Y19690
X166635Y48860
X162435Y48860
X164535Y50160
X76605Y48860
X72405Y48860
X74505Y50160
X121621Y48860
M30