G04 EAGLE Gerber RS-274X export*
G75*
%MOMM*%
%FSLAX34Y34*%
%LPD*%
%INSoldermask Top*%
%IPPOS*%
%AMOC8*
5,1,8,0,0,1.08239X$1,22.5*%
G01*
%ADD10C,1.203200*%
%ADD11R,0.803200X1.403200*%
%ADD12R,1.303200X1.203200*%
%ADD13R,1.203200X1.303200*%
%ADD14R,1.303200X2.103200*%
%ADD15C,2.082800*%
%ADD16C,0.505344*%
%ADD17R,0.553200X1.653200*%
%ADD18C,0.657200*%
%ADD19C,1.270000*%
%ADD20C,1.703200*%

G36*
X52296Y478353D02*
X52296Y478353D01*
X52303Y478351D01*
X52363Y478372D01*
X52424Y478390D01*
X52428Y478395D01*
X52435Y478398D01*
X52474Y478448D01*
X52516Y478495D01*
X52517Y478502D01*
X52521Y478508D01*
X52538Y478580D01*
X52752Y481298D01*
X53384Y483931D01*
X54420Y486431D01*
X55834Y488739D01*
X57592Y490798D01*
X59650Y492556D01*
X61958Y493970D01*
X64459Y495006D01*
X67091Y495638D01*
X69789Y495850D01*
X72488Y495638D01*
X75120Y495006D01*
X77621Y493970D01*
X79929Y492556D01*
X81987Y490798D01*
X83745Y488739D01*
X85159Y486431D01*
X86195Y483931D01*
X86827Y481298D01*
X87041Y478580D01*
X87044Y478574D01*
X87042Y478567D01*
X87068Y478509D01*
X87091Y478450D01*
X87096Y478445D01*
X87099Y478439D01*
X87152Y478404D01*
X87203Y478366D01*
X87210Y478366D01*
X87216Y478362D01*
X87289Y478351D01*
X97289Y478351D01*
X97314Y478358D01*
X97340Y478356D01*
X97380Y478377D01*
X97424Y478390D01*
X97441Y478410D01*
X97464Y478422D01*
X97486Y478461D01*
X97516Y478495D01*
X97519Y478521D01*
X97532Y478544D01*
X97538Y478618D01*
X97258Y482531D01*
X97255Y482541D01*
X97253Y482567D01*
X96419Y486401D01*
X96414Y486409D01*
X96409Y486435D01*
X95038Y490111D01*
X95032Y490119D01*
X95023Y490143D01*
X93143Y493587D01*
X93136Y493594D01*
X93123Y493617D01*
X90772Y496758D01*
X90764Y496764D01*
X90749Y496785D01*
X87974Y499559D01*
X87966Y499564D01*
X87947Y499583D01*
X84806Y501934D01*
X84797Y501937D01*
X84776Y501953D01*
X81333Y503834D01*
X81323Y503836D01*
X81300Y503848D01*
X77624Y505220D01*
X77615Y505220D01*
X77590Y505230D01*
X73756Y506064D01*
X73746Y506063D01*
X73721Y506069D01*
X69807Y506349D01*
X69798Y506347D01*
X69772Y506349D01*
X65858Y506069D01*
X65849Y506065D01*
X65823Y506064D01*
X61989Y505230D01*
X61980Y505225D01*
X61955Y505220D01*
X58278Y503848D01*
X58271Y503843D01*
X58246Y503834D01*
X54802Y501953D01*
X54796Y501946D01*
X54772Y501934D01*
X51631Y499583D01*
X51626Y499575D01*
X51605Y499559D01*
X48830Y496785D01*
X48825Y496776D01*
X48807Y496758D01*
X46455Y493617D01*
X46452Y493608D01*
X46436Y493587D01*
X44556Y490143D01*
X44554Y490134D01*
X44541Y490111D01*
X43170Y486435D01*
X43169Y486425D01*
X43160Y486401D01*
X42326Y482567D01*
X42326Y482557D01*
X42321Y482531D01*
X42041Y478618D01*
X42046Y478592D01*
X42042Y478567D01*
X42061Y478525D01*
X42070Y478481D01*
X42089Y478463D01*
X42099Y478439D01*
X42137Y478414D01*
X42169Y478382D01*
X42194Y478376D01*
X42216Y478362D01*
X42289Y478351D01*
X52289Y478351D01*
X52296Y478353D01*
G37*
G36*
X952625Y478353D02*
X952625Y478353D01*
X952632Y478351D01*
X952691Y478372D01*
X952752Y478390D01*
X952757Y478395D01*
X952764Y478398D01*
X952802Y478448D01*
X952844Y478495D01*
X952845Y478502D01*
X952849Y478508D01*
X952866Y478580D01*
X953080Y481298D01*
X953712Y483931D01*
X954748Y486431D01*
X956162Y488739D01*
X957920Y490798D01*
X959979Y492556D01*
X962286Y493970D01*
X964787Y495006D01*
X967419Y495638D01*
X970118Y495850D01*
X972816Y495638D01*
X975448Y495006D01*
X977949Y493970D01*
X980257Y492556D01*
X982315Y490798D01*
X984073Y488739D01*
X985488Y486431D01*
X986524Y483931D01*
X987155Y481298D01*
X987369Y478580D01*
X987372Y478574D01*
X987371Y478567D01*
X987397Y478509D01*
X987419Y478450D01*
X987425Y478445D01*
X987428Y478439D01*
X987480Y478404D01*
X987531Y478366D01*
X987538Y478366D01*
X987544Y478362D01*
X987618Y478351D01*
X997618Y478351D01*
X997643Y478358D01*
X997669Y478356D01*
X997709Y478377D01*
X997752Y478390D01*
X997769Y478410D01*
X997792Y478422D01*
X997814Y478461D01*
X997844Y478495D01*
X997848Y478521D01*
X997861Y478544D01*
X997866Y478618D01*
X997587Y482531D01*
X997583Y482541D01*
X997581Y482567D01*
X996747Y486401D01*
X996743Y486409D01*
X996737Y486435D01*
X995366Y490111D01*
X995360Y490119D01*
X995351Y490143D01*
X993471Y493587D01*
X993464Y493594D01*
X993452Y493617D01*
X991100Y496758D01*
X991093Y496764D01*
X991077Y496785D01*
X988303Y499559D01*
X988294Y499564D01*
X988276Y499583D01*
X985135Y501934D01*
X985126Y501937D01*
X985105Y501953D01*
X981661Y503834D01*
X981652Y503836D01*
X981629Y503848D01*
X977953Y505220D01*
X977943Y505220D01*
X977918Y505230D01*
X974084Y506064D01*
X974075Y506063D01*
X974049Y506069D01*
X970136Y506349D01*
X970126Y506347D01*
X970100Y506349D01*
X966186Y506069D01*
X966177Y506065D01*
X966151Y506064D01*
X962317Y505230D01*
X962309Y505225D01*
X962283Y505220D01*
X958607Y503848D01*
X958599Y503843D01*
X958574Y503834D01*
X955131Y501953D01*
X955124Y501946D01*
X955101Y501934D01*
X951960Y499583D01*
X951954Y499575D01*
X951933Y499559D01*
X949158Y496785D01*
X949154Y496776D01*
X949135Y496758D01*
X946784Y493617D01*
X946780Y493608D01*
X946765Y493587D01*
X944884Y490143D01*
X944882Y490134D01*
X944869Y490111D01*
X943498Y486435D01*
X943498Y486425D01*
X943488Y486401D01*
X942654Y482567D01*
X942655Y482557D01*
X942649Y482531D01*
X942369Y478618D01*
X942375Y478592D01*
X942371Y478567D01*
X942389Y478525D01*
X942399Y478481D01*
X942417Y478463D01*
X942428Y478439D01*
X942465Y478414D01*
X942497Y478382D01*
X942523Y478376D01*
X942544Y478362D01*
X942618Y478351D01*
X952618Y478351D01*
X952625Y478353D01*
G37*
G36*
X1402789Y478353D02*
X1402789Y478353D01*
X1402796Y478351D01*
X1402855Y478372D01*
X1402916Y478390D01*
X1402921Y478395D01*
X1402928Y478398D01*
X1402967Y478448D01*
X1403008Y478495D01*
X1403009Y478502D01*
X1403014Y478508D01*
X1403030Y478580D01*
X1403244Y481298D01*
X1403876Y483931D01*
X1404912Y486431D01*
X1406326Y488739D01*
X1408084Y490798D01*
X1410143Y492556D01*
X1412451Y493970D01*
X1414951Y495006D01*
X1417584Y495638D01*
X1420282Y495850D01*
X1422980Y495638D01*
X1425613Y495006D01*
X1428113Y493970D01*
X1430421Y492556D01*
X1432480Y490798D01*
X1434238Y488739D01*
X1435652Y486431D01*
X1436688Y483931D01*
X1437320Y481298D01*
X1437534Y478580D01*
X1437536Y478574D01*
X1437535Y478567D01*
X1437561Y478509D01*
X1437583Y478450D01*
X1437589Y478445D01*
X1437592Y478439D01*
X1437645Y478404D01*
X1437695Y478366D01*
X1437703Y478366D01*
X1437709Y478362D01*
X1437782Y478351D01*
X1447782Y478351D01*
X1447807Y478358D01*
X1447833Y478356D01*
X1447873Y478377D01*
X1447916Y478390D01*
X1447933Y478410D01*
X1447956Y478422D01*
X1447978Y478461D01*
X1448008Y478495D01*
X1448012Y478521D01*
X1448025Y478544D01*
X1448031Y478618D01*
X1447751Y482531D01*
X1447747Y482541D01*
X1447746Y482567D01*
X1446912Y486401D01*
X1446907Y486409D01*
X1446902Y486435D01*
X1445530Y490111D01*
X1445525Y490119D01*
X1445516Y490143D01*
X1443635Y493587D01*
X1443628Y493594D01*
X1443616Y493617D01*
X1441265Y496758D01*
X1441257Y496764D01*
X1441241Y496785D01*
X1438467Y499559D01*
X1438458Y499564D01*
X1438440Y499583D01*
X1435299Y501934D01*
X1435290Y501937D01*
X1435269Y501953D01*
X1431825Y503834D01*
X1431816Y503836D01*
X1431793Y503848D01*
X1428117Y505220D01*
X1428107Y505220D01*
X1428083Y505230D01*
X1424249Y506064D01*
X1424239Y506063D01*
X1424213Y506069D01*
X1420300Y506349D01*
X1420290Y506347D01*
X1420264Y506349D01*
X1416351Y506069D01*
X1416341Y506065D01*
X1416315Y506064D01*
X1412481Y505230D01*
X1412473Y505225D01*
X1412447Y505220D01*
X1408771Y503848D01*
X1408763Y503843D01*
X1408739Y503834D01*
X1405295Y501953D01*
X1405288Y501946D01*
X1405265Y501934D01*
X1402124Y499583D01*
X1402118Y499575D01*
X1402097Y499559D01*
X1399323Y496785D01*
X1399318Y496776D01*
X1399299Y496758D01*
X1396948Y493617D01*
X1396945Y493608D01*
X1396929Y493587D01*
X1395048Y490143D01*
X1395046Y490134D01*
X1395034Y490111D01*
X1393662Y486435D01*
X1393662Y486425D01*
X1393652Y486401D01*
X1392818Y482567D01*
X1392819Y482557D01*
X1392813Y482531D01*
X1392533Y478618D01*
X1392539Y478592D01*
X1392535Y478567D01*
X1392553Y478525D01*
X1392563Y478481D01*
X1392581Y478463D01*
X1392592Y478439D01*
X1392630Y478414D01*
X1392661Y478382D01*
X1392687Y478376D01*
X1392709Y478362D01*
X1392782Y478351D01*
X1402782Y478351D01*
X1402789Y478353D01*
G37*
G36*
X502461Y478353D02*
X502461Y478353D01*
X502468Y478351D01*
X502527Y478372D01*
X502588Y478390D01*
X502593Y478395D01*
X502599Y478398D01*
X502638Y478448D01*
X502680Y478495D01*
X502681Y478502D01*
X502685Y478508D01*
X502702Y478580D01*
X502916Y481298D01*
X503548Y483931D01*
X504584Y486431D01*
X505998Y488739D01*
X507756Y490798D01*
X509814Y492556D01*
X512122Y493970D01*
X514623Y495006D01*
X517255Y495638D01*
X519954Y495850D01*
X522652Y495638D01*
X525284Y495006D01*
X527785Y493970D01*
X530093Y492556D01*
X532151Y490798D01*
X533909Y488739D01*
X535323Y486431D01*
X536359Y483931D01*
X536991Y481298D01*
X537205Y478580D01*
X537208Y478574D01*
X537207Y478567D01*
X537232Y478509D01*
X537255Y478450D01*
X537261Y478445D01*
X537263Y478439D01*
X537316Y478404D01*
X537367Y478366D01*
X537374Y478366D01*
X537380Y478362D01*
X537454Y478351D01*
X547454Y478351D01*
X547479Y478358D01*
X547505Y478356D01*
X547544Y478377D01*
X547588Y478390D01*
X547605Y478410D01*
X547628Y478422D01*
X547650Y478461D01*
X547680Y478495D01*
X547684Y478521D01*
X547696Y478544D01*
X547702Y478618D01*
X547422Y482531D01*
X547419Y482541D01*
X547417Y482567D01*
X546583Y486401D01*
X546579Y486409D01*
X546573Y486435D01*
X545202Y490111D01*
X545196Y490119D01*
X545187Y490143D01*
X543307Y493587D01*
X543300Y493594D01*
X543288Y493617D01*
X540936Y496758D01*
X540929Y496764D01*
X540913Y496785D01*
X538139Y499559D01*
X538130Y499564D01*
X538112Y499583D01*
X534971Y501934D01*
X534962Y501937D01*
X534941Y501953D01*
X531497Y503834D01*
X531488Y503836D01*
X531465Y503848D01*
X527788Y505220D01*
X527779Y505220D01*
X527754Y505230D01*
X523920Y506064D01*
X523911Y506063D01*
X523885Y506069D01*
X519971Y506349D01*
X519962Y506347D01*
X519936Y506349D01*
X516022Y506069D01*
X516013Y506065D01*
X515987Y506064D01*
X512153Y505230D01*
X512144Y505225D01*
X512119Y505220D01*
X508443Y503848D01*
X508435Y503843D01*
X508410Y503834D01*
X504967Y501953D01*
X504960Y501946D01*
X504937Y501934D01*
X501796Y499583D01*
X501790Y499575D01*
X501769Y499559D01*
X498994Y496785D01*
X498990Y496776D01*
X498971Y496758D01*
X496620Y493617D01*
X496616Y493608D01*
X496600Y493587D01*
X494720Y490143D01*
X494718Y490134D01*
X494705Y490111D01*
X493334Y486435D01*
X493333Y486425D01*
X493324Y486401D01*
X492490Y482567D01*
X492491Y482557D01*
X492485Y482531D01*
X492205Y478618D01*
X492210Y478592D01*
X492207Y478567D01*
X492225Y478525D01*
X492235Y478481D01*
X492253Y478463D01*
X492263Y478439D01*
X492301Y478414D01*
X492333Y478382D01*
X492358Y478376D01*
X492380Y478362D01*
X492454Y478351D01*
X502454Y478351D01*
X502461Y478353D01*
G37*
G36*
X277391Y478353D02*
X277391Y478353D01*
X277398Y478351D01*
X277457Y478372D01*
X277518Y478390D01*
X277523Y478395D01*
X277530Y478398D01*
X277569Y478448D01*
X277610Y478495D01*
X277611Y478502D01*
X277616Y478508D01*
X277633Y478580D01*
X277847Y481298D01*
X278479Y483931D01*
X279514Y486431D01*
X280929Y488739D01*
X282687Y490798D01*
X284745Y492556D01*
X287053Y493970D01*
X289554Y495006D01*
X292186Y495638D01*
X294884Y495850D01*
X297583Y495638D01*
X300215Y495006D01*
X302716Y493970D01*
X305024Y492556D01*
X307082Y490798D01*
X308840Y488739D01*
X310254Y486431D01*
X311290Y483931D01*
X311922Y481298D01*
X312136Y478580D01*
X312138Y478574D01*
X312137Y478567D01*
X312163Y478509D01*
X312185Y478450D01*
X312191Y478445D01*
X312194Y478439D01*
X312247Y478404D01*
X312297Y478366D01*
X312305Y478366D01*
X312311Y478362D01*
X312384Y478351D01*
X322384Y478351D01*
X322409Y478358D01*
X322435Y478356D01*
X322475Y478377D01*
X322518Y478390D01*
X322536Y478410D01*
X322558Y478422D01*
X322581Y478461D01*
X322610Y478495D01*
X322614Y478521D01*
X322627Y478544D01*
X322633Y478618D01*
X322353Y482531D01*
X322350Y482541D01*
X322348Y482567D01*
X321514Y486401D01*
X321509Y486409D01*
X321504Y486435D01*
X320133Y490111D01*
X320127Y490119D01*
X320118Y490143D01*
X318237Y493587D01*
X318231Y493594D01*
X318218Y493617D01*
X315867Y496758D01*
X315859Y496764D01*
X315844Y496785D01*
X313069Y499559D01*
X313061Y499564D01*
X313042Y499583D01*
X309901Y501934D01*
X309892Y501937D01*
X309871Y501953D01*
X306428Y503834D01*
X306418Y503836D01*
X306395Y503848D01*
X302719Y505220D01*
X302709Y505220D01*
X302685Y505230D01*
X298851Y506064D01*
X298841Y506063D01*
X298816Y506069D01*
X294902Y506349D01*
X294893Y506347D01*
X294866Y506349D01*
X290953Y506069D01*
X290944Y506065D01*
X290918Y506064D01*
X287084Y505230D01*
X287075Y505225D01*
X287049Y505220D01*
X283373Y503848D01*
X283365Y503843D01*
X283341Y503834D01*
X279897Y501953D01*
X279890Y501946D01*
X279867Y501934D01*
X276726Y499583D01*
X276720Y499575D01*
X276699Y499559D01*
X273925Y496785D01*
X273920Y496776D01*
X273902Y496758D01*
X271550Y493617D01*
X271547Y493608D01*
X271531Y493587D01*
X269651Y490143D01*
X269649Y490134D01*
X269636Y490111D01*
X268265Y486435D01*
X268264Y486425D01*
X268255Y486401D01*
X267421Y482567D01*
X267421Y482557D01*
X267415Y482531D01*
X267136Y478618D01*
X267141Y478592D01*
X267137Y478567D01*
X267156Y478525D01*
X267165Y478481D01*
X267183Y478463D01*
X267194Y478439D01*
X267232Y478414D01*
X267264Y478382D01*
X267289Y478376D01*
X267311Y478362D01*
X267384Y478351D01*
X277384Y478351D01*
X277391Y478353D01*
G37*
G36*
X1177720Y478353D02*
X1177720Y478353D01*
X1177727Y478351D01*
X1177786Y478372D01*
X1177847Y478390D01*
X1177852Y478395D01*
X1177858Y478398D01*
X1177897Y478448D01*
X1177939Y478495D01*
X1177940Y478502D01*
X1177944Y478508D01*
X1177961Y478580D01*
X1178175Y481298D01*
X1178807Y483931D01*
X1179843Y486431D01*
X1181257Y488739D01*
X1183015Y490798D01*
X1185073Y492556D01*
X1187381Y493970D01*
X1189882Y495006D01*
X1192514Y495638D01*
X1195213Y495850D01*
X1197911Y495638D01*
X1200543Y495006D01*
X1203044Y493970D01*
X1205352Y492556D01*
X1207410Y490798D01*
X1209168Y488739D01*
X1210582Y486431D01*
X1211618Y483931D01*
X1212250Y481298D01*
X1212464Y478580D01*
X1212467Y478574D01*
X1212466Y478567D01*
X1212491Y478509D01*
X1212514Y478450D01*
X1212520Y478445D01*
X1212522Y478439D01*
X1212575Y478404D01*
X1212626Y478366D01*
X1212633Y478366D01*
X1212639Y478362D01*
X1212713Y478351D01*
X1222713Y478351D01*
X1222738Y478358D01*
X1222764Y478356D01*
X1222803Y478377D01*
X1222847Y478390D01*
X1222864Y478410D01*
X1222887Y478422D01*
X1222909Y478461D01*
X1222939Y478495D01*
X1222943Y478521D01*
X1222955Y478544D01*
X1222961Y478618D01*
X1222681Y482531D01*
X1222678Y482541D01*
X1222676Y482567D01*
X1221842Y486401D01*
X1221838Y486409D01*
X1221832Y486435D01*
X1220461Y490111D01*
X1220455Y490119D01*
X1220446Y490143D01*
X1218566Y493587D01*
X1218559Y493594D01*
X1218547Y493617D01*
X1216195Y496758D01*
X1216188Y496764D01*
X1216172Y496785D01*
X1213398Y499559D01*
X1213389Y499564D01*
X1213371Y499583D01*
X1210230Y501934D01*
X1210221Y501937D01*
X1210200Y501953D01*
X1206756Y503834D01*
X1206747Y503836D01*
X1206724Y503848D01*
X1203047Y505220D01*
X1203038Y505220D01*
X1203013Y505230D01*
X1199179Y506064D01*
X1199170Y506063D01*
X1199144Y506069D01*
X1195230Y506349D01*
X1195221Y506347D01*
X1195195Y506349D01*
X1191281Y506069D01*
X1191272Y506065D01*
X1191246Y506064D01*
X1187412Y505230D01*
X1187403Y505225D01*
X1187378Y505220D01*
X1183702Y503848D01*
X1183694Y503843D01*
X1183669Y503834D01*
X1180226Y501953D01*
X1180219Y501946D01*
X1180196Y501934D01*
X1177055Y499583D01*
X1177049Y499575D01*
X1177028Y499559D01*
X1174253Y496785D01*
X1174249Y496776D01*
X1174230Y496758D01*
X1171879Y493617D01*
X1171875Y493608D01*
X1171859Y493587D01*
X1169979Y490143D01*
X1169977Y490134D01*
X1169964Y490111D01*
X1168593Y486435D01*
X1168592Y486425D01*
X1168583Y486401D01*
X1167749Y482567D01*
X1167750Y482557D01*
X1167744Y482531D01*
X1167464Y478618D01*
X1167469Y478592D01*
X1167466Y478567D01*
X1167484Y478525D01*
X1167494Y478481D01*
X1167512Y478463D01*
X1167522Y478439D01*
X1167560Y478414D01*
X1167592Y478382D01*
X1167617Y478376D01*
X1167639Y478362D01*
X1167713Y478351D01*
X1177713Y478351D01*
X1177720Y478353D01*
G37*
G36*
X727555Y478353D02*
X727555Y478353D01*
X727562Y478351D01*
X727622Y478372D01*
X727683Y478390D01*
X727687Y478395D01*
X727694Y478398D01*
X727733Y478448D01*
X727775Y478495D01*
X727776Y478502D01*
X727780Y478508D01*
X727797Y478580D01*
X728011Y481298D01*
X728643Y483931D01*
X729679Y486431D01*
X731093Y488739D01*
X732851Y490798D01*
X734909Y492556D01*
X737217Y493970D01*
X739718Y495006D01*
X742350Y495638D01*
X745048Y495850D01*
X747747Y495638D01*
X750379Y495006D01*
X752880Y493970D01*
X755188Y492556D01*
X757246Y490798D01*
X759004Y488739D01*
X760418Y486431D01*
X761454Y483931D01*
X762086Y481298D01*
X762300Y478580D01*
X762303Y478574D01*
X762301Y478567D01*
X762327Y478509D01*
X762350Y478450D01*
X762355Y478445D01*
X762358Y478439D01*
X762411Y478404D01*
X762462Y478366D01*
X762469Y478366D01*
X762475Y478362D01*
X762548Y478351D01*
X772548Y478351D01*
X772573Y478358D01*
X772599Y478356D01*
X772639Y478377D01*
X772683Y478390D01*
X772700Y478410D01*
X772723Y478422D01*
X772745Y478461D01*
X772775Y478495D01*
X772778Y478521D01*
X772791Y478544D01*
X772797Y478618D01*
X772517Y482531D01*
X772514Y482541D01*
X772512Y482567D01*
X771678Y486401D01*
X771673Y486409D01*
X771668Y486435D01*
X770297Y490111D01*
X770291Y490119D01*
X770282Y490143D01*
X768402Y493587D01*
X768395Y493594D01*
X768382Y493617D01*
X766031Y496758D01*
X766023Y496764D01*
X766008Y496785D01*
X763233Y499559D01*
X763225Y499564D01*
X763206Y499583D01*
X760065Y501934D01*
X760056Y501937D01*
X760035Y501953D01*
X756592Y503834D01*
X756582Y503836D01*
X756559Y503848D01*
X752883Y505220D01*
X752874Y505220D01*
X752849Y505230D01*
X749015Y506064D01*
X749005Y506063D01*
X748980Y506069D01*
X745066Y506349D01*
X745057Y506347D01*
X745031Y506349D01*
X741117Y506069D01*
X741108Y506065D01*
X741082Y506064D01*
X737248Y505230D01*
X737239Y505225D01*
X737214Y505220D01*
X733537Y503848D01*
X733530Y503843D01*
X733505Y503834D01*
X730061Y501953D01*
X730055Y501946D01*
X730031Y501934D01*
X726890Y499583D01*
X726885Y499575D01*
X726864Y499559D01*
X724089Y496785D01*
X724084Y496776D01*
X724066Y496758D01*
X721714Y493617D01*
X721711Y493608D01*
X721695Y493587D01*
X719815Y490143D01*
X719813Y490134D01*
X719800Y490111D01*
X718429Y486435D01*
X718428Y486425D01*
X718419Y486401D01*
X717585Y482567D01*
X717585Y482557D01*
X717580Y482531D01*
X717300Y478618D01*
X717305Y478592D01*
X717301Y478567D01*
X717320Y478525D01*
X717329Y478481D01*
X717348Y478463D01*
X717358Y478439D01*
X717396Y478414D01*
X717428Y478382D01*
X717453Y478376D01*
X717475Y478362D01*
X717548Y478351D01*
X727548Y478351D01*
X727555Y478353D01*
G37*
G36*
X1627858Y478353D02*
X1627858Y478353D01*
X1627865Y478351D01*
X1627925Y478372D01*
X1627986Y478390D01*
X1627990Y478395D01*
X1627997Y478398D01*
X1628036Y478448D01*
X1628078Y478495D01*
X1628079Y478502D01*
X1628083Y478508D01*
X1628100Y478580D01*
X1628314Y481298D01*
X1628946Y483931D01*
X1629982Y486431D01*
X1631396Y488739D01*
X1633154Y490798D01*
X1635212Y492556D01*
X1637520Y493970D01*
X1640021Y495006D01*
X1642653Y495638D01*
X1645351Y495850D01*
X1648050Y495638D01*
X1650682Y495006D01*
X1653183Y493970D01*
X1655491Y492556D01*
X1657549Y490798D01*
X1659307Y488739D01*
X1660721Y486431D01*
X1661757Y483931D01*
X1662389Y481298D01*
X1662603Y478580D01*
X1662606Y478574D01*
X1662604Y478567D01*
X1662630Y478509D01*
X1662653Y478450D01*
X1662658Y478445D01*
X1662661Y478439D01*
X1662714Y478404D01*
X1662765Y478366D01*
X1662772Y478366D01*
X1662778Y478362D01*
X1662851Y478351D01*
X1672851Y478351D01*
X1672876Y478358D01*
X1672902Y478356D01*
X1672942Y478377D01*
X1672986Y478390D01*
X1673003Y478410D01*
X1673026Y478422D01*
X1673048Y478461D01*
X1673078Y478495D01*
X1673081Y478521D01*
X1673094Y478544D01*
X1673100Y478618D01*
X1672820Y482531D01*
X1672817Y482541D01*
X1672815Y482567D01*
X1671981Y486401D01*
X1671976Y486409D01*
X1671971Y486435D01*
X1670600Y490111D01*
X1670594Y490119D01*
X1670585Y490143D01*
X1668705Y493587D01*
X1668698Y493594D01*
X1668685Y493617D01*
X1666334Y496758D01*
X1666326Y496764D01*
X1666311Y496785D01*
X1663536Y499559D01*
X1663528Y499564D01*
X1663509Y499583D01*
X1660368Y501934D01*
X1660359Y501937D01*
X1660338Y501953D01*
X1656895Y503834D01*
X1656885Y503836D01*
X1656862Y503848D01*
X1653186Y505220D01*
X1653177Y505220D01*
X1653152Y505230D01*
X1649318Y506064D01*
X1649308Y506063D01*
X1649283Y506069D01*
X1645369Y506349D01*
X1645360Y506347D01*
X1645334Y506349D01*
X1641420Y506069D01*
X1641411Y506065D01*
X1641385Y506064D01*
X1637551Y505230D01*
X1637542Y505225D01*
X1637517Y505220D01*
X1633840Y503848D01*
X1633833Y503843D01*
X1633808Y503834D01*
X1630364Y501953D01*
X1630358Y501946D01*
X1630334Y501934D01*
X1627193Y499583D01*
X1627188Y499575D01*
X1627167Y499559D01*
X1624392Y496785D01*
X1624387Y496776D01*
X1624369Y496758D01*
X1622017Y493617D01*
X1622014Y493608D01*
X1621998Y493587D01*
X1620118Y490143D01*
X1620116Y490134D01*
X1620103Y490111D01*
X1618732Y486435D01*
X1618731Y486425D01*
X1618722Y486401D01*
X1617888Y482567D01*
X1617888Y482557D01*
X1617883Y482531D01*
X1617603Y478618D01*
X1617608Y478592D01*
X1617604Y478567D01*
X1617623Y478525D01*
X1617632Y478481D01*
X1617651Y478463D01*
X1617661Y478439D01*
X1617699Y478414D01*
X1617731Y478382D01*
X1617756Y478376D01*
X1617778Y478362D01*
X1617851Y478351D01*
X1627851Y478351D01*
X1627858Y478353D01*
G37*
G36*
X1729693Y192431D02*
X1729693Y192431D01*
X1729703Y192435D01*
X1729729Y192436D01*
X1733563Y193270D01*
X1733571Y193275D01*
X1733597Y193280D01*
X1737273Y194652D01*
X1737281Y194657D01*
X1737305Y194666D01*
X1740749Y196547D01*
X1740756Y196554D01*
X1740779Y196566D01*
X1743920Y198917D01*
X1743926Y198925D01*
X1743947Y198941D01*
X1746721Y201715D01*
X1746726Y201724D01*
X1746745Y201742D01*
X1749096Y204883D01*
X1749099Y204892D01*
X1749115Y204913D01*
X1750996Y208357D01*
X1750998Y208366D01*
X1751010Y208389D01*
X1752382Y212065D01*
X1752382Y212075D01*
X1752392Y212099D01*
X1753226Y215933D01*
X1753225Y215943D01*
X1753231Y215969D01*
X1753511Y219882D01*
X1753505Y219908D01*
X1753509Y219933D01*
X1753491Y219975D01*
X1753481Y220019D01*
X1753463Y220037D01*
X1753452Y220061D01*
X1753414Y220086D01*
X1753383Y220118D01*
X1753357Y220124D01*
X1753336Y220138D01*
X1753262Y220149D01*
X1743262Y220149D01*
X1743255Y220147D01*
X1743248Y220149D01*
X1743189Y220128D01*
X1743128Y220110D01*
X1743123Y220105D01*
X1743116Y220102D01*
X1743078Y220052D01*
X1743036Y220005D01*
X1743035Y219998D01*
X1743030Y219992D01*
X1743014Y219920D01*
X1742800Y217202D01*
X1742168Y214569D01*
X1741132Y212069D01*
X1739718Y209761D01*
X1737960Y207702D01*
X1735901Y205944D01*
X1733593Y204530D01*
X1731093Y203494D01*
X1728460Y202862D01*
X1725762Y202650D01*
X1723064Y202862D01*
X1720431Y203494D01*
X1717931Y204530D01*
X1715623Y205944D01*
X1713564Y207702D01*
X1711806Y209761D01*
X1710392Y212069D01*
X1709356Y214569D01*
X1708724Y217202D01*
X1708510Y219920D01*
X1708508Y219926D01*
X1708509Y219933D01*
X1708483Y219991D01*
X1708461Y220050D01*
X1708455Y220055D01*
X1708452Y220061D01*
X1708399Y220096D01*
X1708349Y220134D01*
X1708342Y220134D01*
X1708336Y220138D01*
X1708262Y220149D01*
X1698262Y220149D01*
X1698237Y220142D01*
X1698211Y220144D01*
X1698171Y220123D01*
X1698128Y220110D01*
X1698111Y220090D01*
X1698088Y220078D01*
X1698066Y220039D01*
X1698036Y220005D01*
X1698032Y219979D01*
X1698019Y219956D01*
X1698013Y219882D01*
X1698293Y215969D01*
X1698297Y215959D01*
X1698298Y215933D01*
X1699132Y212099D01*
X1699137Y212091D01*
X1699142Y212065D01*
X1700514Y208389D01*
X1700519Y208381D01*
X1700528Y208357D01*
X1702409Y204913D01*
X1702416Y204906D01*
X1702428Y204883D01*
X1704779Y201742D01*
X1704787Y201736D01*
X1704803Y201715D01*
X1707577Y198941D01*
X1707586Y198936D01*
X1707604Y198917D01*
X1710745Y196566D01*
X1710754Y196563D01*
X1710775Y196547D01*
X1714219Y194666D01*
X1714228Y194664D01*
X1714251Y194652D01*
X1717927Y193280D01*
X1717937Y193280D01*
X1717961Y193270D01*
X1721795Y192436D01*
X1721805Y192437D01*
X1721831Y192431D01*
X1725744Y192151D01*
X1725754Y192153D01*
X1725780Y192151D01*
X1729693Y192431D01*
G37*
G36*
X1054460Y192431D02*
X1054460Y192431D01*
X1054469Y192435D01*
X1054495Y192436D01*
X1058329Y193270D01*
X1058338Y193275D01*
X1058363Y193280D01*
X1062039Y194652D01*
X1062047Y194657D01*
X1062072Y194666D01*
X1065515Y196547D01*
X1065522Y196554D01*
X1065545Y196566D01*
X1068686Y198917D01*
X1068692Y198925D01*
X1068713Y198941D01*
X1071488Y201715D01*
X1071492Y201724D01*
X1071511Y201742D01*
X1073862Y204883D01*
X1073866Y204892D01*
X1073882Y204913D01*
X1075762Y208357D01*
X1075764Y208366D01*
X1075777Y208389D01*
X1077148Y212065D01*
X1077149Y212075D01*
X1077158Y212099D01*
X1077992Y215933D01*
X1077991Y215943D01*
X1077997Y215969D01*
X1078277Y219882D01*
X1078272Y219908D01*
X1078275Y219933D01*
X1078257Y219975D01*
X1078248Y220019D01*
X1078229Y220037D01*
X1078219Y220061D01*
X1078181Y220086D01*
X1078149Y220118D01*
X1078124Y220124D01*
X1078102Y220138D01*
X1078028Y220149D01*
X1068028Y220149D01*
X1068021Y220147D01*
X1068014Y220149D01*
X1067955Y220128D01*
X1067894Y220110D01*
X1067889Y220105D01*
X1067883Y220102D01*
X1067844Y220052D01*
X1067802Y220005D01*
X1067801Y219998D01*
X1067797Y219992D01*
X1067780Y219920D01*
X1067566Y217202D01*
X1066934Y214569D01*
X1065898Y212069D01*
X1064484Y209761D01*
X1062726Y207702D01*
X1060668Y205944D01*
X1058360Y204530D01*
X1055859Y203494D01*
X1053227Y202862D01*
X1050528Y202650D01*
X1047830Y202862D01*
X1045198Y203494D01*
X1042697Y204530D01*
X1040389Y205944D01*
X1038331Y207702D01*
X1036573Y209761D01*
X1035159Y212069D01*
X1034123Y214569D01*
X1033491Y217202D01*
X1033277Y219920D01*
X1033274Y219926D01*
X1033275Y219933D01*
X1033250Y219991D01*
X1033227Y220050D01*
X1033222Y220055D01*
X1033219Y220061D01*
X1033166Y220096D01*
X1033115Y220134D01*
X1033108Y220134D01*
X1033102Y220138D01*
X1033028Y220149D01*
X1023028Y220149D01*
X1023003Y220142D01*
X1022977Y220144D01*
X1022938Y220123D01*
X1022894Y220110D01*
X1022877Y220090D01*
X1022854Y220078D01*
X1022832Y220039D01*
X1022802Y220005D01*
X1022798Y219979D01*
X1022786Y219956D01*
X1022780Y219882D01*
X1023060Y215969D01*
X1023063Y215959D01*
X1023065Y215933D01*
X1023899Y212099D01*
X1023903Y212091D01*
X1023909Y212065D01*
X1025280Y208389D01*
X1025286Y208381D01*
X1025295Y208357D01*
X1027175Y204913D01*
X1027182Y204906D01*
X1027194Y204883D01*
X1029546Y201742D01*
X1029554Y201736D01*
X1029569Y201715D01*
X1032344Y198941D01*
X1032352Y198936D01*
X1032370Y198917D01*
X1035511Y196566D01*
X1035521Y196563D01*
X1035541Y196547D01*
X1038985Y194666D01*
X1038994Y194664D01*
X1039017Y194652D01*
X1042694Y193280D01*
X1042703Y193280D01*
X1042728Y193270D01*
X1046562Y192436D01*
X1046571Y192437D01*
X1046597Y192431D01*
X1050511Y192151D01*
X1050520Y192153D01*
X1050546Y192151D01*
X1054460Y192431D01*
G37*
G36*
X829365Y192431D02*
X829365Y192431D01*
X829374Y192435D01*
X829400Y192436D01*
X833234Y193270D01*
X833243Y193275D01*
X833268Y193280D01*
X836945Y194652D01*
X836952Y194657D01*
X836977Y194666D01*
X840421Y196547D01*
X840427Y196554D01*
X840451Y196566D01*
X843592Y198917D01*
X843597Y198925D01*
X843619Y198941D01*
X846393Y201715D01*
X846398Y201724D01*
X846416Y201742D01*
X848768Y204883D01*
X848771Y204892D01*
X848787Y204913D01*
X850667Y208357D01*
X850669Y208366D01*
X850682Y208389D01*
X852053Y212065D01*
X852054Y212075D01*
X852063Y212099D01*
X852897Y215933D01*
X852897Y215943D01*
X852902Y215969D01*
X853182Y219882D01*
X853177Y219908D01*
X853181Y219933D01*
X853162Y219975D01*
X853153Y220019D01*
X853134Y220037D01*
X853124Y220061D01*
X853086Y220086D01*
X853054Y220118D01*
X853029Y220124D01*
X853007Y220138D01*
X852934Y220149D01*
X842934Y220149D01*
X842927Y220147D01*
X842920Y220149D01*
X842860Y220128D01*
X842799Y220110D01*
X842795Y220105D01*
X842788Y220102D01*
X842749Y220052D01*
X842707Y220005D01*
X842706Y219998D01*
X842702Y219992D01*
X842685Y219920D01*
X842471Y217202D01*
X841839Y214569D01*
X840803Y212069D01*
X839389Y209761D01*
X837631Y207702D01*
X835573Y205944D01*
X833265Y204530D01*
X830764Y203494D01*
X828132Y202862D01*
X825434Y202650D01*
X822735Y202862D01*
X820103Y203494D01*
X817602Y204530D01*
X815294Y205944D01*
X813236Y207702D01*
X811478Y209761D01*
X810064Y212069D01*
X809028Y214569D01*
X808396Y217202D01*
X808182Y219920D01*
X808180Y219926D01*
X808181Y219933D01*
X808155Y219991D01*
X808132Y220050D01*
X808127Y220055D01*
X808124Y220061D01*
X808071Y220096D01*
X808020Y220134D01*
X808013Y220134D01*
X808007Y220138D01*
X807934Y220149D01*
X797934Y220149D01*
X797909Y220142D01*
X797883Y220144D01*
X797843Y220123D01*
X797799Y220110D01*
X797782Y220090D01*
X797759Y220078D01*
X797737Y220039D01*
X797707Y220005D01*
X797704Y219979D01*
X797691Y219956D01*
X797685Y219882D01*
X797965Y215969D01*
X797968Y215959D01*
X797970Y215933D01*
X798804Y212099D01*
X798809Y212091D01*
X798814Y212065D01*
X800185Y208389D01*
X800191Y208381D01*
X800200Y208357D01*
X802080Y204913D01*
X802087Y204906D01*
X802100Y204883D01*
X804451Y201742D01*
X804459Y201736D01*
X804474Y201715D01*
X807249Y198941D01*
X807257Y198936D01*
X807276Y198917D01*
X810417Y196566D01*
X810426Y196563D01*
X810447Y196547D01*
X813890Y194666D01*
X813900Y194664D01*
X813923Y194652D01*
X817599Y193280D01*
X817609Y193280D01*
X817633Y193270D01*
X821467Y192436D01*
X821477Y192437D01*
X821502Y192431D01*
X825416Y192151D01*
X825425Y192153D01*
X825451Y192151D01*
X829365Y192431D01*
G37*
G36*
X1279529Y192431D02*
X1279529Y192431D01*
X1279538Y192435D01*
X1279564Y192436D01*
X1283398Y193270D01*
X1283407Y193275D01*
X1283433Y193280D01*
X1287109Y194652D01*
X1287117Y194657D01*
X1287141Y194666D01*
X1290585Y196547D01*
X1290592Y196554D01*
X1290615Y196566D01*
X1293756Y198917D01*
X1293762Y198925D01*
X1293783Y198941D01*
X1296557Y201715D01*
X1296562Y201724D01*
X1296580Y201742D01*
X1298932Y204883D01*
X1298935Y204892D01*
X1298951Y204913D01*
X1300831Y208357D01*
X1300834Y208366D01*
X1300846Y208389D01*
X1302217Y212065D01*
X1302218Y212075D01*
X1302227Y212099D01*
X1303061Y215933D01*
X1303061Y215943D01*
X1303067Y215969D01*
X1303346Y219882D01*
X1303341Y219908D01*
X1303345Y219933D01*
X1303326Y219975D01*
X1303317Y220019D01*
X1303299Y220037D01*
X1303288Y220061D01*
X1303250Y220086D01*
X1303218Y220118D01*
X1303193Y220124D01*
X1303171Y220138D01*
X1303098Y220149D01*
X1293098Y220149D01*
X1293091Y220147D01*
X1293084Y220149D01*
X1293025Y220128D01*
X1292964Y220110D01*
X1292959Y220105D01*
X1292952Y220102D01*
X1292913Y220052D01*
X1292872Y220005D01*
X1292871Y219998D01*
X1292866Y219992D01*
X1292849Y219920D01*
X1292635Y217202D01*
X1292004Y214569D01*
X1290968Y212069D01*
X1289553Y209761D01*
X1287795Y207702D01*
X1285737Y205944D01*
X1283429Y204530D01*
X1280928Y203494D01*
X1278296Y202862D01*
X1275598Y202650D01*
X1272899Y202862D01*
X1270267Y203494D01*
X1267766Y204530D01*
X1265459Y205944D01*
X1263400Y207702D01*
X1261642Y209761D01*
X1260228Y212069D01*
X1259192Y214569D01*
X1258560Y217202D01*
X1258346Y219920D01*
X1258344Y219926D01*
X1258345Y219933D01*
X1258319Y219991D01*
X1258297Y220050D01*
X1258291Y220055D01*
X1258288Y220061D01*
X1258235Y220096D01*
X1258185Y220134D01*
X1258177Y220134D01*
X1258171Y220138D01*
X1258098Y220149D01*
X1248098Y220149D01*
X1248073Y220142D01*
X1248047Y220144D01*
X1248007Y220123D01*
X1247964Y220110D01*
X1247946Y220090D01*
X1247924Y220078D01*
X1247901Y220039D01*
X1247872Y220005D01*
X1247868Y219979D01*
X1247855Y219956D01*
X1247849Y219882D01*
X1248129Y215969D01*
X1248132Y215959D01*
X1248134Y215933D01*
X1248968Y212099D01*
X1248973Y212091D01*
X1248978Y212065D01*
X1250349Y208389D01*
X1250355Y208381D01*
X1250364Y208357D01*
X1252245Y204913D01*
X1252251Y204906D01*
X1252264Y204883D01*
X1254615Y201742D01*
X1254623Y201736D01*
X1254638Y201715D01*
X1257413Y198941D01*
X1257421Y198936D01*
X1257440Y198917D01*
X1260581Y196566D01*
X1260590Y196563D01*
X1260611Y196547D01*
X1264054Y194666D01*
X1264064Y194664D01*
X1264087Y194652D01*
X1267763Y193280D01*
X1267773Y193280D01*
X1267797Y193270D01*
X1271631Y192436D01*
X1271641Y192437D01*
X1271666Y192431D01*
X1275580Y192151D01*
X1275590Y192153D01*
X1275616Y192151D01*
X1279529Y192431D01*
G37*
G36*
X1504624Y192431D02*
X1504624Y192431D01*
X1504633Y192435D01*
X1504659Y192436D01*
X1508493Y193270D01*
X1508502Y193275D01*
X1508527Y193280D01*
X1512204Y194652D01*
X1512211Y194657D01*
X1512236Y194666D01*
X1515680Y196547D01*
X1515686Y196554D01*
X1515710Y196566D01*
X1518851Y198917D01*
X1518856Y198925D01*
X1518878Y198941D01*
X1521652Y201715D01*
X1521657Y201724D01*
X1521675Y201742D01*
X1524027Y204883D01*
X1524030Y204892D01*
X1524046Y204913D01*
X1525926Y208357D01*
X1525928Y208366D01*
X1525941Y208389D01*
X1527312Y212065D01*
X1527313Y212075D01*
X1527322Y212099D01*
X1528156Y215933D01*
X1528156Y215943D01*
X1528161Y215969D01*
X1528441Y219882D01*
X1528436Y219908D01*
X1528440Y219933D01*
X1528421Y219975D01*
X1528412Y220019D01*
X1528393Y220037D01*
X1528383Y220061D01*
X1528345Y220086D01*
X1528313Y220118D01*
X1528288Y220124D01*
X1528266Y220138D01*
X1528193Y220149D01*
X1518193Y220149D01*
X1518186Y220147D01*
X1518179Y220149D01*
X1518119Y220128D01*
X1518058Y220110D01*
X1518054Y220105D01*
X1518047Y220102D01*
X1518008Y220052D01*
X1517966Y220005D01*
X1517965Y219998D01*
X1517961Y219992D01*
X1517944Y219920D01*
X1517730Y217202D01*
X1517098Y214569D01*
X1516062Y212069D01*
X1514648Y209761D01*
X1512890Y207702D01*
X1510832Y205944D01*
X1508524Y204530D01*
X1506023Y203494D01*
X1503391Y202862D01*
X1500693Y202650D01*
X1497994Y202862D01*
X1495362Y203494D01*
X1492861Y204530D01*
X1490553Y205944D01*
X1488495Y207702D01*
X1486737Y209761D01*
X1485323Y212069D01*
X1484287Y214569D01*
X1483655Y217202D01*
X1483441Y219920D01*
X1483439Y219926D01*
X1483440Y219933D01*
X1483414Y219991D01*
X1483391Y220050D01*
X1483386Y220055D01*
X1483383Y220061D01*
X1483330Y220096D01*
X1483279Y220134D01*
X1483272Y220134D01*
X1483266Y220138D01*
X1483193Y220149D01*
X1473193Y220149D01*
X1473168Y220142D01*
X1473142Y220144D01*
X1473102Y220123D01*
X1473058Y220110D01*
X1473041Y220090D01*
X1473018Y220078D01*
X1472996Y220039D01*
X1472966Y220005D01*
X1472963Y219979D01*
X1472950Y219956D01*
X1472944Y219882D01*
X1473224Y215969D01*
X1473227Y215959D01*
X1473229Y215933D01*
X1474063Y212099D01*
X1474068Y212091D01*
X1474073Y212065D01*
X1475444Y208389D01*
X1475450Y208381D01*
X1475459Y208357D01*
X1477339Y204913D01*
X1477346Y204906D01*
X1477359Y204883D01*
X1479710Y201742D01*
X1479718Y201736D01*
X1479733Y201715D01*
X1482508Y198941D01*
X1482516Y198936D01*
X1482535Y198917D01*
X1485676Y196566D01*
X1485685Y196563D01*
X1485706Y196547D01*
X1489149Y194666D01*
X1489159Y194664D01*
X1489182Y194652D01*
X1492858Y193280D01*
X1492868Y193280D01*
X1492892Y193270D01*
X1496726Y192436D01*
X1496736Y192437D01*
X1496761Y192431D01*
X1500675Y192151D01*
X1500684Y192153D01*
X1500710Y192151D01*
X1504624Y192431D01*
G37*
G36*
X604296Y192431D02*
X604296Y192431D01*
X604305Y192435D01*
X604331Y192436D01*
X608165Y193270D01*
X608173Y193275D01*
X608199Y193280D01*
X611875Y194652D01*
X611883Y194657D01*
X611908Y194666D01*
X615351Y196547D01*
X615358Y196554D01*
X615381Y196566D01*
X618522Y198917D01*
X618528Y198925D01*
X618549Y198941D01*
X621324Y201715D01*
X621328Y201724D01*
X621347Y201742D01*
X623698Y204883D01*
X623702Y204892D01*
X623717Y204913D01*
X625598Y208357D01*
X625600Y208366D01*
X625613Y208389D01*
X626984Y212065D01*
X626984Y212075D01*
X626994Y212099D01*
X627828Y215933D01*
X627827Y215943D01*
X627833Y215969D01*
X628113Y219882D01*
X628107Y219908D01*
X628111Y219933D01*
X628093Y219975D01*
X628083Y220019D01*
X628065Y220037D01*
X628054Y220061D01*
X628017Y220086D01*
X627985Y220118D01*
X627959Y220124D01*
X627938Y220138D01*
X627864Y220149D01*
X617864Y220149D01*
X617857Y220147D01*
X617850Y220149D01*
X617791Y220128D01*
X617730Y220110D01*
X617725Y220105D01*
X617718Y220102D01*
X617680Y220052D01*
X617638Y220005D01*
X617637Y219998D01*
X617633Y219992D01*
X617616Y219920D01*
X617402Y217202D01*
X616770Y214569D01*
X615734Y212069D01*
X614320Y209761D01*
X612562Y207702D01*
X610504Y205944D01*
X608196Y204530D01*
X605695Y203494D01*
X603063Y202862D01*
X600364Y202650D01*
X597666Y202862D01*
X595034Y203494D01*
X592533Y204530D01*
X590225Y205944D01*
X588167Y207702D01*
X586409Y209761D01*
X584994Y212069D01*
X583959Y214569D01*
X583327Y217202D01*
X583113Y219920D01*
X583110Y219926D01*
X583111Y219933D01*
X583085Y219991D01*
X583063Y220050D01*
X583057Y220055D01*
X583054Y220061D01*
X583002Y220096D01*
X582951Y220134D01*
X582944Y220134D01*
X582938Y220138D01*
X582864Y220149D01*
X572864Y220149D01*
X572839Y220142D01*
X572813Y220144D01*
X572773Y220123D01*
X572730Y220110D01*
X572713Y220090D01*
X572690Y220078D01*
X572668Y220039D01*
X572638Y220005D01*
X572634Y219979D01*
X572621Y219956D01*
X572616Y219882D01*
X572895Y215969D01*
X572899Y215959D01*
X572901Y215933D01*
X573735Y212099D01*
X573739Y212091D01*
X573745Y212065D01*
X575116Y208389D01*
X575122Y208381D01*
X575131Y208357D01*
X577011Y204913D01*
X577018Y204906D01*
X577030Y204883D01*
X579382Y201742D01*
X579389Y201736D01*
X579405Y201715D01*
X582179Y198941D01*
X582188Y198936D01*
X582206Y198917D01*
X585347Y196566D01*
X585356Y196563D01*
X585377Y196547D01*
X588821Y194666D01*
X588830Y194664D01*
X588853Y194652D01*
X592529Y193280D01*
X592539Y193280D01*
X592564Y193270D01*
X596398Y192436D01*
X596407Y192437D01*
X596433Y192431D01*
X600346Y192151D01*
X600356Y192153D01*
X600382Y192151D01*
X604296Y192431D01*
G37*
G36*
X379201Y192431D02*
X379201Y192431D01*
X379210Y192435D01*
X379236Y192436D01*
X383070Y193270D01*
X383079Y193275D01*
X383104Y193280D01*
X386780Y194652D01*
X386788Y194657D01*
X386813Y194666D01*
X390256Y196547D01*
X390263Y196554D01*
X390286Y196566D01*
X393427Y198917D01*
X393433Y198925D01*
X393454Y198941D01*
X396229Y201715D01*
X396233Y201724D01*
X396252Y201742D01*
X398603Y204883D01*
X398607Y204892D01*
X398623Y204913D01*
X400503Y208357D01*
X400505Y208366D01*
X400518Y208389D01*
X401889Y212065D01*
X401890Y212075D01*
X401899Y212099D01*
X402733Y215933D01*
X402732Y215943D01*
X402738Y215969D01*
X403018Y219882D01*
X403013Y219908D01*
X403016Y219933D01*
X402998Y219975D01*
X402989Y220019D01*
X402970Y220037D01*
X402960Y220061D01*
X402922Y220086D01*
X402890Y220118D01*
X402865Y220124D01*
X402843Y220138D01*
X402769Y220149D01*
X392769Y220149D01*
X392762Y220147D01*
X392755Y220149D01*
X392696Y220128D01*
X392635Y220110D01*
X392630Y220105D01*
X392624Y220102D01*
X392585Y220052D01*
X392543Y220005D01*
X392542Y219998D01*
X392538Y219992D01*
X392521Y219920D01*
X392307Y217202D01*
X391675Y214569D01*
X390639Y212069D01*
X389225Y209761D01*
X387467Y207702D01*
X385409Y205944D01*
X383101Y204530D01*
X380600Y203494D01*
X377968Y202862D01*
X375269Y202650D01*
X372571Y202862D01*
X369939Y203494D01*
X367438Y204530D01*
X365130Y205944D01*
X363072Y207702D01*
X361314Y209761D01*
X359900Y212069D01*
X358864Y214569D01*
X358232Y217202D01*
X358018Y219920D01*
X358015Y219926D01*
X358016Y219933D01*
X357991Y219991D01*
X357968Y220050D01*
X357963Y220055D01*
X357960Y220061D01*
X357907Y220096D01*
X357856Y220134D01*
X357849Y220134D01*
X357843Y220138D01*
X357769Y220149D01*
X347769Y220149D01*
X347744Y220142D01*
X347718Y220144D01*
X347679Y220123D01*
X347635Y220110D01*
X347618Y220090D01*
X347595Y220078D01*
X347573Y220039D01*
X347543Y220005D01*
X347539Y219979D01*
X347527Y219956D01*
X347521Y219882D01*
X347801Y215969D01*
X347804Y215959D01*
X347806Y215933D01*
X348640Y212099D01*
X348644Y212091D01*
X348650Y212065D01*
X350021Y208389D01*
X350027Y208381D01*
X350036Y208357D01*
X351916Y204913D01*
X351923Y204906D01*
X351935Y204883D01*
X354287Y201742D01*
X354295Y201736D01*
X354310Y201715D01*
X357085Y198941D01*
X357093Y198936D01*
X357111Y198917D01*
X360252Y196566D01*
X360262Y196563D01*
X360282Y196547D01*
X363726Y194666D01*
X363735Y194664D01*
X363758Y194652D01*
X367435Y193280D01*
X367444Y193280D01*
X367469Y193270D01*
X371303Y192436D01*
X371312Y192437D01*
X371338Y192431D01*
X375252Y192151D01*
X375261Y192153D01*
X375287Y192151D01*
X379201Y192431D01*
G37*
G36*
X154131Y192431D02*
X154131Y192431D01*
X154141Y192435D01*
X154167Y192436D01*
X158001Y193270D01*
X158009Y193275D01*
X158035Y193280D01*
X161711Y194652D01*
X161719Y194657D01*
X161743Y194666D01*
X165187Y196547D01*
X165194Y196554D01*
X165217Y196566D01*
X168358Y198917D01*
X168364Y198925D01*
X168385Y198941D01*
X171159Y201715D01*
X171164Y201724D01*
X171183Y201742D01*
X173534Y204883D01*
X173537Y204892D01*
X173553Y204913D01*
X175434Y208357D01*
X175436Y208366D01*
X175448Y208389D01*
X176820Y212065D01*
X176820Y212075D01*
X176830Y212099D01*
X177664Y215933D01*
X177663Y215943D01*
X177669Y215969D01*
X177949Y219882D01*
X177943Y219908D01*
X177947Y219933D01*
X177929Y219975D01*
X177919Y220019D01*
X177901Y220037D01*
X177890Y220061D01*
X177852Y220086D01*
X177821Y220118D01*
X177795Y220124D01*
X177774Y220138D01*
X177700Y220149D01*
X167700Y220149D01*
X167693Y220147D01*
X167686Y220149D01*
X167627Y220128D01*
X167566Y220110D01*
X167561Y220105D01*
X167554Y220102D01*
X167516Y220052D01*
X167474Y220005D01*
X167473Y219998D01*
X167468Y219992D01*
X167452Y219920D01*
X167238Y217202D01*
X166606Y214569D01*
X165570Y212069D01*
X164156Y209761D01*
X162398Y207702D01*
X160339Y205944D01*
X158031Y204530D01*
X155531Y203494D01*
X152898Y202862D01*
X150200Y202650D01*
X147502Y202862D01*
X144869Y203494D01*
X142369Y204530D01*
X140061Y205944D01*
X138002Y207702D01*
X136244Y209761D01*
X134830Y212069D01*
X133794Y214569D01*
X133162Y217202D01*
X132948Y219920D01*
X132946Y219926D01*
X132947Y219933D01*
X132921Y219991D01*
X132899Y220050D01*
X132893Y220055D01*
X132890Y220061D01*
X132837Y220096D01*
X132787Y220134D01*
X132780Y220134D01*
X132774Y220138D01*
X132700Y220149D01*
X122700Y220149D01*
X122675Y220142D01*
X122649Y220144D01*
X122609Y220123D01*
X122566Y220110D01*
X122549Y220090D01*
X122526Y220078D01*
X122504Y220039D01*
X122474Y220005D01*
X122470Y219979D01*
X122457Y219956D01*
X122451Y219882D01*
X122731Y215969D01*
X122735Y215959D01*
X122736Y215933D01*
X123570Y212099D01*
X123575Y212091D01*
X123580Y212065D01*
X124952Y208389D01*
X124957Y208381D01*
X124966Y208357D01*
X126847Y204913D01*
X126854Y204906D01*
X126866Y204883D01*
X129217Y201742D01*
X129225Y201736D01*
X129241Y201715D01*
X132015Y198941D01*
X132024Y198936D01*
X132042Y198917D01*
X135183Y196566D01*
X135192Y196563D01*
X135213Y196547D01*
X138657Y194666D01*
X138666Y194664D01*
X138689Y194652D01*
X142365Y193280D01*
X142375Y193280D01*
X142399Y193270D01*
X146233Y192436D01*
X146243Y192437D01*
X146269Y192431D01*
X150182Y192151D01*
X150192Y192153D01*
X150218Y192151D01*
X154131Y192431D01*
G37*
D10*
X19050Y50800D03*
X203200Y203200D03*
D11*
X159450Y178000D03*
X146750Y178000D03*
X134050Y178000D03*
X121350Y178000D03*
X108650Y178000D03*
X95950Y178000D03*
X83250Y178000D03*
X70550Y178000D03*
X70550Y122000D03*
X83250Y122000D03*
X95950Y122000D03*
X108650Y122000D03*
X121350Y122000D03*
X134050Y122000D03*
X146750Y122000D03*
X159450Y122000D03*
D12*
X21500Y120000D03*
X38500Y120000D03*
X38500Y200000D03*
X21500Y200000D03*
X108500Y200000D03*
X91500Y200000D03*
D13*
X205000Y143500D03*
X205000Y126500D03*
D14*
X18500Y178500D03*
X41500Y141500D03*
X41500Y178500D03*
X18500Y141500D03*
D15*
X200025Y94675D03*
X200025Y69275D03*
X174625Y94675D03*
X174625Y69275D03*
X149225Y94675D03*
X149225Y69275D03*
X123825Y94675D03*
X123825Y69275D03*
X47625Y94675D03*
X47625Y69275D03*
X22225Y94675D03*
X22225Y69275D03*
X183810Y152620D03*
X63510Y203260D03*
D16*
X201510Y180280D02*
X208490Y180280D01*
X201510Y180280D02*
X201510Y187260D01*
X208490Y187260D01*
X208490Y180280D01*
X208490Y185080D02*
X201510Y185080D01*
X201510Y162740D02*
X208490Y162740D01*
X201510Y162740D02*
X201510Y169720D01*
X208490Y169720D01*
X208490Y162740D01*
X208490Y167540D02*
X201510Y167540D01*
D17*
X202700Y12650D03*
X197700Y12650D03*
X192700Y12650D03*
X187700Y12650D03*
X182700Y12650D03*
X177700Y12650D03*
X172700Y12650D03*
X167700Y12650D03*
X162700Y12650D03*
X157700Y12650D03*
X152700Y12650D03*
X147700Y12650D03*
X122700Y12650D03*
X117700Y12650D03*
X112700Y12650D03*
X107700Y12650D03*
X102700Y12650D03*
X97700Y12650D03*
X92700Y12650D03*
X87700Y12650D03*
X82700Y12650D03*
X77700Y12650D03*
X72700Y12650D03*
X67700Y12650D03*
X62700Y12650D03*
X57700Y12650D03*
X52700Y12650D03*
X47700Y12650D03*
X42700Y12650D03*
X37700Y12650D03*
X32700Y12650D03*
X27700Y12650D03*
X22700Y12650D03*
X17700Y12650D03*
D18*
X129200Y209900D03*
X171200Y209900D03*
X150200Y196900D03*
D15*
X98425Y94675D03*
X98425Y69275D03*
X73025Y94675D03*
X73025Y69275D03*
D10*
X244119Y50800D03*
X428269Y203200D03*
D11*
X384519Y178000D03*
X371819Y178000D03*
X359119Y178000D03*
X346419Y178000D03*
X333719Y178000D03*
X321019Y178000D03*
X308319Y178000D03*
X295619Y178000D03*
X295619Y122000D03*
X308319Y122000D03*
X321019Y122000D03*
X333719Y122000D03*
X346419Y122000D03*
X359119Y122000D03*
X371819Y122000D03*
X384519Y122000D03*
D12*
X246569Y120000D03*
X263569Y120000D03*
X263569Y200000D03*
X246569Y200000D03*
X333569Y200000D03*
X316569Y200000D03*
D13*
X430069Y143500D03*
X430069Y126500D03*
D14*
X243569Y178500D03*
X266569Y141500D03*
X266569Y178500D03*
X243569Y141500D03*
D15*
X425094Y94675D03*
X425094Y69275D03*
X399694Y94675D03*
X399694Y69275D03*
X374294Y94675D03*
X374294Y69275D03*
X348894Y94675D03*
X348894Y69275D03*
X272694Y94675D03*
X272694Y69275D03*
X247294Y94675D03*
X247294Y69275D03*
X408879Y152620D03*
X288579Y203260D03*
D16*
X426579Y180280D02*
X433559Y180280D01*
X426579Y180280D02*
X426579Y187260D01*
X433559Y187260D01*
X433559Y180280D01*
X433559Y185080D02*
X426579Y185080D01*
X426579Y162740D02*
X433559Y162740D01*
X426579Y162740D02*
X426579Y169720D01*
X433559Y169720D01*
X433559Y162740D01*
X433559Y167540D02*
X426579Y167540D01*
D17*
X427769Y12650D03*
X422769Y12650D03*
X417769Y12650D03*
X412769Y12650D03*
X407769Y12650D03*
X402769Y12650D03*
X397769Y12650D03*
X392769Y12650D03*
X387769Y12650D03*
X382769Y12650D03*
X377769Y12650D03*
X372769Y12650D03*
X347769Y12650D03*
X342769Y12650D03*
X337769Y12650D03*
X332769Y12650D03*
X327769Y12650D03*
X322769Y12650D03*
X317769Y12650D03*
X312769Y12650D03*
X307769Y12650D03*
X302769Y12650D03*
X297769Y12650D03*
X292769Y12650D03*
X287769Y12650D03*
X282769Y12650D03*
X277769Y12650D03*
X272769Y12650D03*
X267769Y12650D03*
X262769Y12650D03*
X257769Y12650D03*
X252769Y12650D03*
X247769Y12650D03*
X242769Y12650D03*
D18*
X354269Y209900D03*
X396269Y209900D03*
X375269Y196900D03*
D15*
X323494Y94675D03*
X323494Y69275D03*
X298094Y94675D03*
X298094Y69275D03*
D10*
X469214Y50800D03*
X653364Y203200D03*
D11*
X609614Y178000D03*
X596914Y178000D03*
X584214Y178000D03*
X571514Y178000D03*
X558814Y178000D03*
X546114Y178000D03*
X533414Y178000D03*
X520714Y178000D03*
X520714Y122000D03*
X533414Y122000D03*
X546114Y122000D03*
X558814Y122000D03*
X571514Y122000D03*
X584214Y122000D03*
X596914Y122000D03*
X609614Y122000D03*
D12*
X471664Y120000D03*
X488664Y120000D03*
X488664Y200000D03*
X471664Y200000D03*
X558664Y200000D03*
X541664Y200000D03*
D13*
X655164Y143500D03*
X655164Y126500D03*
D14*
X468664Y178500D03*
X491664Y141500D03*
X491664Y178500D03*
X468664Y141500D03*
D15*
X650189Y94675D03*
X650189Y69275D03*
X624789Y94675D03*
X624789Y69275D03*
X599389Y94675D03*
X599389Y69275D03*
X573989Y94675D03*
X573989Y69275D03*
X497789Y94675D03*
X497789Y69275D03*
X472389Y94675D03*
X472389Y69275D03*
X633974Y152620D03*
X513674Y203260D03*
D16*
X651674Y180280D02*
X658654Y180280D01*
X651674Y180280D02*
X651674Y187260D01*
X658654Y187260D01*
X658654Y180280D01*
X658654Y185080D02*
X651674Y185080D01*
X651674Y162740D02*
X658654Y162740D01*
X651674Y162740D02*
X651674Y169720D01*
X658654Y169720D01*
X658654Y162740D01*
X658654Y167540D02*
X651674Y167540D01*
D17*
X652864Y12650D03*
X647864Y12650D03*
X642864Y12650D03*
X637864Y12650D03*
X632864Y12650D03*
X627864Y12650D03*
X622864Y12650D03*
X617864Y12650D03*
X612864Y12650D03*
X607864Y12650D03*
X602864Y12650D03*
X597864Y12650D03*
X572864Y12650D03*
X567864Y12650D03*
X562864Y12650D03*
X557864Y12650D03*
X552864Y12650D03*
X547864Y12650D03*
X542864Y12650D03*
X537864Y12650D03*
X532864Y12650D03*
X527864Y12650D03*
X522864Y12650D03*
X517864Y12650D03*
X512864Y12650D03*
X507864Y12650D03*
X502864Y12650D03*
X497864Y12650D03*
X492864Y12650D03*
X487864Y12650D03*
X482864Y12650D03*
X477864Y12650D03*
X472864Y12650D03*
X467864Y12650D03*
D18*
X579364Y209900D03*
X621364Y209900D03*
X600364Y196900D03*
D15*
X548589Y94675D03*
X548589Y69275D03*
X523189Y94675D03*
X523189Y69275D03*
D10*
X694284Y50800D03*
X878434Y203200D03*
D11*
X834684Y178000D03*
X821984Y178000D03*
X809284Y178000D03*
X796584Y178000D03*
X783884Y178000D03*
X771184Y178000D03*
X758484Y178000D03*
X745784Y178000D03*
X745784Y122000D03*
X758484Y122000D03*
X771184Y122000D03*
X783884Y122000D03*
X796584Y122000D03*
X809284Y122000D03*
X821984Y122000D03*
X834684Y122000D03*
D12*
X696734Y120000D03*
X713734Y120000D03*
X713734Y200000D03*
X696734Y200000D03*
X783734Y200000D03*
X766734Y200000D03*
D13*
X880234Y143500D03*
X880234Y126500D03*
D14*
X693734Y178500D03*
X716734Y141500D03*
X716734Y178500D03*
X693734Y141500D03*
D15*
X875259Y94675D03*
X875259Y69275D03*
X849859Y94675D03*
X849859Y69275D03*
X824459Y94675D03*
X824459Y69275D03*
X799059Y94675D03*
X799059Y69275D03*
X722859Y94675D03*
X722859Y69275D03*
X697459Y94675D03*
X697459Y69275D03*
X859044Y152620D03*
X738744Y203260D03*
D16*
X876744Y180280D02*
X883724Y180280D01*
X876744Y180280D02*
X876744Y187260D01*
X883724Y187260D01*
X883724Y180280D01*
X883724Y185080D02*
X876744Y185080D01*
X876744Y162740D02*
X883724Y162740D01*
X876744Y162740D02*
X876744Y169720D01*
X883724Y169720D01*
X883724Y162740D01*
X883724Y167540D02*
X876744Y167540D01*
D17*
X877934Y12650D03*
X872934Y12650D03*
X867934Y12650D03*
X862934Y12650D03*
X857934Y12650D03*
X852934Y12650D03*
X847934Y12650D03*
X842934Y12650D03*
X837934Y12650D03*
X832934Y12650D03*
X827934Y12650D03*
X822934Y12650D03*
X797934Y12650D03*
X792934Y12650D03*
X787934Y12650D03*
X782934Y12650D03*
X777934Y12650D03*
X772934Y12650D03*
X767934Y12650D03*
X762934Y12650D03*
X757934Y12650D03*
X752934Y12650D03*
X747934Y12650D03*
X742934Y12650D03*
X737934Y12650D03*
X732934Y12650D03*
X727934Y12650D03*
X722934Y12650D03*
X717934Y12650D03*
X712934Y12650D03*
X707934Y12650D03*
X702934Y12650D03*
X697934Y12650D03*
X692934Y12650D03*
D18*
X804434Y209900D03*
X846434Y209900D03*
X825434Y196900D03*
D15*
X773659Y94675D03*
X773659Y69275D03*
X748259Y94675D03*
X748259Y69275D03*
D10*
X919378Y50800D03*
X1103528Y203200D03*
D11*
X1059778Y178000D03*
X1047078Y178000D03*
X1034378Y178000D03*
X1021678Y178000D03*
X1008978Y178000D03*
X996278Y178000D03*
X983578Y178000D03*
X970878Y178000D03*
X970878Y122000D03*
X983578Y122000D03*
X996278Y122000D03*
X1008978Y122000D03*
X1021678Y122000D03*
X1034378Y122000D03*
X1047078Y122000D03*
X1059778Y122000D03*
D12*
X921828Y120000D03*
X938828Y120000D03*
X938828Y200000D03*
X921828Y200000D03*
X1008828Y200000D03*
X991828Y200000D03*
D13*
X1105328Y143500D03*
X1105328Y126500D03*
D14*
X918828Y178500D03*
X941828Y141500D03*
X941828Y178500D03*
X918828Y141500D03*
D15*
X1100353Y94675D03*
X1100353Y69275D03*
X1074953Y94675D03*
X1074953Y69275D03*
X1049553Y94675D03*
X1049553Y69275D03*
X1024153Y94675D03*
X1024153Y69275D03*
X947953Y94675D03*
X947953Y69275D03*
X922553Y94675D03*
X922553Y69275D03*
X1084138Y152620D03*
X963838Y203260D03*
D16*
X1101838Y180280D02*
X1108818Y180280D01*
X1101838Y180280D02*
X1101838Y187260D01*
X1108818Y187260D01*
X1108818Y180280D01*
X1108818Y185080D02*
X1101838Y185080D01*
X1101838Y162740D02*
X1108818Y162740D01*
X1101838Y162740D02*
X1101838Y169720D01*
X1108818Y169720D01*
X1108818Y162740D01*
X1108818Y167540D02*
X1101838Y167540D01*
D17*
X1103028Y12650D03*
X1098028Y12650D03*
X1093028Y12650D03*
X1088028Y12650D03*
X1083028Y12650D03*
X1078028Y12650D03*
X1073028Y12650D03*
X1068028Y12650D03*
X1063028Y12650D03*
X1058028Y12650D03*
X1053028Y12650D03*
X1048028Y12650D03*
X1023028Y12650D03*
X1018028Y12650D03*
X1013028Y12650D03*
X1008028Y12650D03*
X1003028Y12650D03*
X998028Y12650D03*
X993028Y12650D03*
X988028Y12650D03*
X983028Y12650D03*
X978028Y12650D03*
X973028Y12650D03*
X968028Y12650D03*
X963028Y12650D03*
X958028Y12650D03*
X953028Y12650D03*
X948028Y12650D03*
X943028Y12650D03*
X938028Y12650D03*
X933028Y12650D03*
X928028Y12650D03*
X923028Y12650D03*
X918028Y12650D03*
D18*
X1029528Y209900D03*
X1071528Y209900D03*
X1050528Y196900D03*
D15*
X998753Y94675D03*
X998753Y69275D03*
X973353Y94675D03*
X973353Y69275D03*
D10*
X1144448Y50800D03*
X1328598Y203200D03*
D11*
X1284848Y178000D03*
X1272148Y178000D03*
X1259448Y178000D03*
X1246748Y178000D03*
X1234048Y178000D03*
X1221348Y178000D03*
X1208648Y178000D03*
X1195948Y178000D03*
X1195948Y122000D03*
X1208648Y122000D03*
X1221348Y122000D03*
X1234048Y122000D03*
X1246748Y122000D03*
X1259448Y122000D03*
X1272148Y122000D03*
X1284848Y122000D03*
D12*
X1146898Y120000D03*
X1163898Y120000D03*
X1163898Y200000D03*
X1146898Y200000D03*
X1233898Y200000D03*
X1216898Y200000D03*
D13*
X1330398Y143500D03*
X1330398Y126500D03*
D14*
X1143898Y178500D03*
X1166898Y141500D03*
X1166898Y178500D03*
X1143898Y141500D03*
D15*
X1325423Y94675D03*
X1325423Y69275D03*
X1300023Y94675D03*
X1300023Y69275D03*
X1274623Y94675D03*
X1274623Y69275D03*
X1249223Y94675D03*
X1249223Y69275D03*
X1173023Y94675D03*
X1173023Y69275D03*
X1147623Y94675D03*
X1147623Y69275D03*
X1309208Y152620D03*
X1188908Y203260D03*
D16*
X1326908Y180280D02*
X1333888Y180280D01*
X1326908Y180280D02*
X1326908Y187260D01*
X1333888Y187260D01*
X1333888Y180280D01*
X1333888Y185080D02*
X1326908Y185080D01*
X1326908Y162740D02*
X1333888Y162740D01*
X1326908Y162740D02*
X1326908Y169720D01*
X1333888Y169720D01*
X1333888Y162740D01*
X1333888Y167540D02*
X1326908Y167540D01*
D17*
X1328098Y12650D03*
X1323098Y12650D03*
X1318098Y12650D03*
X1313098Y12650D03*
X1308098Y12650D03*
X1303098Y12650D03*
X1298098Y12650D03*
X1293098Y12650D03*
X1288098Y12650D03*
X1283098Y12650D03*
X1278098Y12650D03*
X1273098Y12650D03*
X1248098Y12650D03*
X1243098Y12650D03*
X1238098Y12650D03*
X1233098Y12650D03*
X1228098Y12650D03*
X1223098Y12650D03*
X1218098Y12650D03*
X1213098Y12650D03*
X1208098Y12650D03*
X1203098Y12650D03*
X1198098Y12650D03*
X1193098Y12650D03*
X1188098Y12650D03*
X1183098Y12650D03*
X1178098Y12650D03*
X1173098Y12650D03*
X1168098Y12650D03*
X1163098Y12650D03*
X1158098Y12650D03*
X1153098Y12650D03*
X1148098Y12650D03*
X1143098Y12650D03*
D18*
X1254598Y209900D03*
X1296598Y209900D03*
X1275598Y196900D03*
D15*
X1223823Y94675D03*
X1223823Y69275D03*
X1198423Y94675D03*
X1198423Y69275D03*
D10*
X1369543Y50800D03*
X1553693Y203200D03*
D11*
X1509943Y178000D03*
X1497243Y178000D03*
X1484543Y178000D03*
X1471843Y178000D03*
X1459143Y178000D03*
X1446443Y178000D03*
X1433743Y178000D03*
X1421043Y178000D03*
X1421043Y122000D03*
X1433743Y122000D03*
X1446443Y122000D03*
X1459143Y122000D03*
X1471843Y122000D03*
X1484543Y122000D03*
X1497243Y122000D03*
X1509943Y122000D03*
D12*
X1371993Y120000D03*
X1388993Y120000D03*
X1388993Y200000D03*
X1371993Y200000D03*
X1458993Y200000D03*
X1441993Y200000D03*
D13*
X1555493Y143500D03*
X1555493Y126500D03*
D14*
X1368993Y178500D03*
X1391993Y141500D03*
X1391993Y178500D03*
X1368993Y141500D03*
D15*
X1550518Y94675D03*
X1550518Y69275D03*
X1525118Y94675D03*
X1525118Y69275D03*
X1499718Y94675D03*
X1499718Y69275D03*
X1474318Y94675D03*
X1474318Y69275D03*
X1398118Y94675D03*
X1398118Y69275D03*
X1372718Y94675D03*
X1372718Y69275D03*
X1534303Y152620D03*
X1414003Y203260D03*
D16*
X1552003Y180280D02*
X1558983Y180280D01*
X1552003Y180280D02*
X1552003Y187260D01*
X1558983Y187260D01*
X1558983Y180280D01*
X1558983Y185080D02*
X1552003Y185080D01*
X1552003Y162740D02*
X1558983Y162740D01*
X1552003Y162740D02*
X1552003Y169720D01*
X1558983Y169720D01*
X1558983Y162740D01*
X1558983Y167540D02*
X1552003Y167540D01*
D17*
X1553193Y12650D03*
X1548193Y12650D03*
X1543193Y12650D03*
X1538193Y12650D03*
X1533193Y12650D03*
X1528193Y12650D03*
X1523193Y12650D03*
X1518193Y12650D03*
X1513193Y12650D03*
X1508193Y12650D03*
X1503193Y12650D03*
X1498193Y12650D03*
X1473193Y12650D03*
X1468193Y12650D03*
X1463193Y12650D03*
X1458193Y12650D03*
X1453193Y12650D03*
X1448193Y12650D03*
X1443193Y12650D03*
X1438193Y12650D03*
X1433193Y12650D03*
X1428193Y12650D03*
X1423193Y12650D03*
X1418193Y12650D03*
X1413193Y12650D03*
X1408193Y12650D03*
X1403193Y12650D03*
X1398193Y12650D03*
X1393193Y12650D03*
X1388193Y12650D03*
X1383193Y12650D03*
X1378193Y12650D03*
X1373193Y12650D03*
X1368193Y12650D03*
D18*
X1479693Y209900D03*
X1521693Y209900D03*
X1500693Y196900D03*
D15*
X1448918Y94675D03*
X1448918Y69275D03*
X1423518Y94675D03*
X1423518Y69275D03*
D10*
X1594612Y50800D03*
X1778762Y203200D03*
D11*
X1735012Y178000D03*
X1722312Y178000D03*
X1709612Y178000D03*
X1696912Y178000D03*
X1684212Y178000D03*
X1671512Y178000D03*
X1658812Y178000D03*
X1646112Y178000D03*
X1646112Y122000D03*
X1658812Y122000D03*
X1671512Y122000D03*
X1684212Y122000D03*
X1696912Y122000D03*
X1709612Y122000D03*
X1722312Y122000D03*
X1735012Y122000D03*
D12*
X1597062Y120000D03*
X1614062Y120000D03*
X1614062Y200000D03*
X1597062Y200000D03*
X1684062Y200000D03*
X1667062Y200000D03*
D13*
X1780562Y143500D03*
X1780562Y126500D03*
D14*
X1594062Y178500D03*
X1617062Y141500D03*
X1617062Y178500D03*
X1594062Y141500D03*
D15*
X1775587Y94675D03*
X1775587Y69275D03*
X1750187Y94675D03*
X1750187Y69275D03*
X1724787Y94675D03*
X1724787Y69275D03*
X1699387Y94675D03*
X1699387Y69275D03*
X1623187Y94675D03*
X1623187Y69275D03*
X1597787Y94675D03*
X1597787Y69275D03*
X1759372Y152620D03*
X1639072Y203260D03*
D16*
X1777072Y180280D02*
X1784052Y180280D01*
X1777072Y180280D02*
X1777072Y187260D01*
X1784052Y187260D01*
X1784052Y180280D01*
X1784052Y185080D02*
X1777072Y185080D01*
X1777072Y162740D02*
X1784052Y162740D01*
X1777072Y162740D02*
X1777072Y169720D01*
X1784052Y169720D01*
X1784052Y162740D01*
X1784052Y167540D02*
X1777072Y167540D01*
D17*
X1778262Y12650D03*
X1773262Y12650D03*
X1768262Y12650D03*
X1763262Y12650D03*
X1758262Y12650D03*
X1753262Y12650D03*
X1748262Y12650D03*
X1743262Y12650D03*
X1738262Y12650D03*
X1733262Y12650D03*
X1728262Y12650D03*
X1723262Y12650D03*
X1698262Y12650D03*
X1693262Y12650D03*
X1688262Y12650D03*
X1683262Y12650D03*
X1678262Y12650D03*
X1673262Y12650D03*
X1668262Y12650D03*
X1663262Y12650D03*
X1658262Y12650D03*
X1653262Y12650D03*
X1648262Y12650D03*
X1643262Y12650D03*
X1638262Y12650D03*
X1633262Y12650D03*
X1628262Y12650D03*
X1623262Y12650D03*
X1618262Y12650D03*
X1613262Y12650D03*
X1608262Y12650D03*
X1603262Y12650D03*
X1598262Y12650D03*
X1593262Y12650D03*
D18*
X1704762Y209900D03*
X1746762Y209900D03*
X1725762Y196900D03*
D15*
X1673987Y94675D03*
X1673987Y69275D03*
X1648587Y94675D03*
X1648587Y69275D03*
D10*
X200939Y647700D03*
X16789Y495300D03*
D11*
X60539Y520500D03*
X73239Y520500D03*
X85939Y520500D03*
X98639Y520500D03*
X111339Y520500D03*
X124039Y520500D03*
X136739Y520500D03*
X149439Y520500D03*
X149439Y576500D03*
X136739Y576500D03*
X124039Y576500D03*
X111339Y576500D03*
X98639Y576500D03*
X85939Y576500D03*
X73239Y576500D03*
X60539Y576500D03*
D12*
X198489Y578500D03*
X181489Y578500D03*
X181489Y498500D03*
X198489Y498500D03*
X111489Y498500D03*
X128489Y498500D03*
D13*
X14989Y555000D03*
X14989Y572000D03*
D14*
X201489Y520000D03*
X178489Y557000D03*
X178489Y520000D03*
X201489Y557000D03*
D15*
X19964Y603825D03*
X19964Y629225D03*
X45364Y603825D03*
X45364Y629225D03*
X70764Y603825D03*
X70764Y629225D03*
X96164Y603825D03*
X96164Y629225D03*
X172364Y603825D03*
X172364Y629225D03*
X197764Y603825D03*
X197764Y629225D03*
X36179Y545880D03*
X156479Y495240D03*
D16*
X18479Y518220D02*
X11499Y518220D01*
X18479Y518220D02*
X18479Y511240D01*
X11499Y511240D01*
X11499Y518220D01*
X11499Y516040D02*
X18479Y516040D01*
X18479Y535760D02*
X11499Y535760D01*
X18479Y535760D02*
X18479Y528780D01*
X11499Y528780D01*
X11499Y535760D01*
X11499Y533580D02*
X18479Y533580D01*
D17*
X17289Y685850D03*
X22289Y685850D03*
X27289Y685850D03*
X32289Y685850D03*
X37289Y685850D03*
X42289Y685850D03*
X47289Y685850D03*
X52289Y685850D03*
X57289Y685850D03*
X62289Y685850D03*
X67289Y685850D03*
X72289Y685850D03*
X97289Y685850D03*
X102289Y685850D03*
X107289Y685850D03*
X112289Y685850D03*
X117289Y685850D03*
X122289Y685850D03*
X127289Y685850D03*
X132289Y685850D03*
X137289Y685850D03*
X142289Y685850D03*
X147289Y685850D03*
X152289Y685850D03*
X157289Y685850D03*
X162289Y685850D03*
X167289Y685850D03*
X172289Y685850D03*
X177289Y685850D03*
X182289Y685850D03*
X187289Y685850D03*
X192289Y685850D03*
X197289Y685850D03*
X202289Y685850D03*
D18*
X90789Y488600D03*
X48789Y488600D03*
X69789Y501600D03*
D15*
X121564Y603825D03*
X121564Y629225D03*
X146964Y603825D03*
X146964Y629225D03*
D10*
X426034Y647700D03*
X241884Y495300D03*
D11*
X285634Y520500D03*
X298334Y520500D03*
X311034Y520500D03*
X323734Y520500D03*
X336434Y520500D03*
X349134Y520500D03*
X361834Y520500D03*
X374534Y520500D03*
X374534Y576500D03*
X361834Y576500D03*
X349134Y576500D03*
X336434Y576500D03*
X323734Y576500D03*
X311034Y576500D03*
X298334Y576500D03*
X285634Y576500D03*
D12*
X423584Y578500D03*
X406584Y578500D03*
X406584Y498500D03*
X423584Y498500D03*
X336584Y498500D03*
X353584Y498500D03*
D13*
X240084Y555000D03*
X240084Y572000D03*
D14*
X426584Y520000D03*
X403584Y557000D03*
X403584Y520000D03*
X426584Y557000D03*
D15*
X245059Y603825D03*
X245059Y629225D03*
X270459Y603825D03*
X270459Y629225D03*
X295859Y603825D03*
X295859Y629225D03*
X321259Y603825D03*
X321259Y629225D03*
X397459Y603825D03*
X397459Y629225D03*
X422859Y603825D03*
X422859Y629225D03*
X261274Y545880D03*
X381574Y495240D03*
D16*
X243574Y518220D02*
X236594Y518220D01*
X243574Y518220D02*
X243574Y511240D01*
X236594Y511240D01*
X236594Y518220D01*
X236594Y516040D02*
X243574Y516040D01*
X243574Y535760D02*
X236594Y535760D01*
X243574Y535760D02*
X243574Y528780D01*
X236594Y528780D01*
X236594Y535760D01*
X236594Y533580D02*
X243574Y533580D01*
D17*
X242384Y685850D03*
X247384Y685850D03*
X252384Y685850D03*
X257384Y685850D03*
X262384Y685850D03*
X267384Y685850D03*
X272384Y685850D03*
X277384Y685850D03*
X282384Y685850D03*
X287384Y685850D03*
X292384Y685850D03*
X297384Y685850D03*
X322384Y685850D03*
X327384Y685850D03*
X332384Y685850D03*
X337384Y685850D03*
X342384Y685850D03*
X347384Y685850D03*
X352384Y685850D03*
X357384Y685850D03*
X362384Y685850D03*
X367384Y685850D03*
X372384Y685850D03*
X377384Y685850D03*
X382384Y685850D03*
X387384Y685850D03*
X392384Y685850D03*
X397384Y685850D03*
X402384Y685850D03*
X407384Y685850D03*
X412384Y685850D03*
X417384Y685850D03*
X422384Y685850D03*
X427384Y685850D03*
D18*
X315884Y488600D03*
X273884Y488600D03*
X294884Y501600D03*
D15*
X346659Y603825D03*
X346659Y629225D03*
X372059Y603825D03*
X372059Y629225D03*
D10*
X651104Y647700D03*
X466954Y495300D03*
D11*
X510704Y520500D03*
X523404Y520500D03*
X536104Y520500D03*
X548804Y520500D03*
X561504Y520500D03*
X574204Y520500D03*
X586904Y520500D03*
X599604Y520500D03*
X599604Y576500D03*
X586904Y576500D03*
X574204Y576500D03*
X561504Y576500D03*
X548804Y576500D03*
X536104Y576500D03*
X523404Y576500D03*
X510704Y576500D03*
D12*
X648654Y578500D03*
X631654Y578500D03*
X631654Y498500D03*
X648654Y498500D03*
X561654Y498500D03*
X578654Y498500D03*
D13*
X465154Y555000D03*
X465154Y572000D03*
D14*
X651654Y520000D03*
X628654Y557000D03*
X628654Y520000D03*
X651654Y557000D03*
D15*
X470129Y603825D03*
X470129Y629225D03*
X495529Y603825D03*
X495529Y629225D03*
X520929Y603825D03*
X520929Y629225D03*
X546329Y603825D03*
X546329Y629225D03*
X622529Y603825D03*
X622529Y629225D03*
X647929Y603825D03*
X647929Y629225D03*
X486344Y545880D03*
X606644Y495240D03*
D16*
X468644Y518220D02*
X461664Y518220D01*
X468644Y518220D02*
X468644Y511240D01*
X461664Y511240D01*
X461664Y518220D01*
X461664Y516040D02*
X468644Y516040D01*
X468644Y535760D02*
X461664Y535760D01*
X468644Y535760D02*
X468644Y528780D01*
X461664Y528780D01*
X461664Y535760D01*
X461664Y533580D02*
X468644Y533580D01*
D17*
X467454Y685850D03*
X472454Y685850D03*
X477454Y685850D03*
X482454Y685850D03*
X487454Y685850D03*
X492454Y685850D03*
X497454Y685850D03*
X502454Y685850D03*
X507454Y685850D03*
X512454Y685850D03*
X517454Y685850D03*
X522454Y685850D03*
X547454Y685850D03*
X552454Y685850D03*
X557454Y685850D03*
X562454Y685850D03*
X567454Y685850D03*
X572454Y685850D03*
X577454Y685850D03*
X582454Y685850D03*
X587454Y685850D03*
X592454Y685850D03*
X597454Y685850D03*
X602454Y685850D03*
X607454Y685850D03*
X612454Y685850D03*
X617454Y685850D03*
X622454Y685850D03*
X627454Y685850D03*
X632454Y685850D03*
X637454Y685850D03*
X642454Y685850D03*
X647454Y685850D03*
X652454Y685850D03*
D18*
X540954Y488600D03*
X498954Y488600D03*
X519954Y501600D03*
D15*
X571729Y603825D03*
X571729Y629225D03*
X597129Y603825D03*
X597129Y629225D03*
D10*
X876198Y647700D03*
X692048Y495300D03*
D11*
X735798Y520500D03*
X748498Y520500D03*
X761198Y520500D03*
X773898Y520500D03*
X786598Y520500D03*
X799298Y520500D03*
X811998Y520500D03*
X824698Y520500D03*
X824698Y576500D03*
X811998Y576500D03*
X799298Y576500D03*
X786598Y576500D03*
X773898Y576500D03*
X761198Y576500D03*
X748498Y576500D03*
X735798Y576500D03*
D12*
X873748Y578500D03*
X856748Y578500D03*
X856748Y498500D03*
X873748Y498500D03*
X786748Y498500D03*
X803748Y498500D03*
D13*
X690248Y555000D03*
X690248Y572000D03*
D14*
X876748Y520000D03*
X853748Y557000D03*
X853748Y520000D03*
X876748Y557000D03*
D15*
X695223Y603825D03*
X695223Y629225D03*
X720623Y603825D03*
X720623Y629225D03*
X746023Y603825D03*
X746023Y629225D03*
X771423Y603825D03*
X771423Y629225D03*
X847623Y603825D03*
X847623Y629225D03*
X873023Y603825D03*
X873023Y629225D03*
X711438Y545880D03*
X831738Y495240D03*
D16*
X693738Y518220D02*
X686758Y518220D01*
X693738Y518220D02*
X693738Y511240D01*
X686758Y511240D01*
X686758Y518220D01*
X686758Y516040D02*
X693738Y516040D01*
X693738Y535760D02*
X686758Y535760D01*
X693738Y535760D02*
X693738Y528780D01*
X686758Y528780D01*
X686758Y535760D01*
X686758Y533580D02*
X693738Y533580D01*
D17*
X692548Y685850D03*
X697548Y685850D03*
X702548Y685850D03*
X707548Y685850D03*
X712548Y685850D03*
X717548Y685850D03*
X722548Y685850D03*
X727548Y685850D03*
X732548Y685850D03*
X737548Y685850D03*
X742548Y685850D03*
X747548Y685850D03*
X772548Y685850D03*
X777548Y685850D03*
X782548Y685850D03*
X787548Y685850D03*
X792548Y685850D03*
X797548Y685850D03*
X802548Y685850D03*
X807548Y685850D03*
X812548Y685850D03*
X817548Y685850D03*
X822548Y685850D03*
X827548Y685850D03*
X832548Y685850D03*
X837548Y685850D03*
X842548Y685850D03*
X847548Y685850D03*
X852548Y685850D03*
X857548Y685850D03*
X862548Y685850D03*
X867548Y685850D03*
X872548Y685850D03*
X877548Y685850D03*
D18*
X766048Y488600D03*
X724048Y488600D03*
X745048Y501600D03*
D15*
X796823Y603825D03*
X796823Y629225D03*
X822223Y603825D03*
X822223Y629225D03*
D10*
X1101268Y647700D03*
X917118Y495300D03*
D11*
X960868Y520500D03*
X973568Y520500D03*
X986268Y520500D03*
X998968Y520500D03*
X1011668Y520500D03*
X1024368Y520500D03*
X1037068Y520500D03*
X1049768Y520500D03*
X1049768Y576500D03*
X1037068Y576500D03*
X1024368Y576500D03*
X1011668Y576500D03*
X998968Y576500D03*
X986268Y576500D03*
X973568Y576500D03*
X960868Y576500D03*
D12*
X1098818Y578500D03*
X1081818Y578500D03*
X1081818Y498500D03*
X1098818Y498500D03*
X1011818Y498500D03*
X1028818Y498500D03*
D13*
X915318Y555000D03*
X915318Y572000D03*
D14*
X1101818Y520000D03*
X1078818Y557000D03*
X1078818Y520000D03*
X1101818Y557000D03*
D15*
X920293Y603825D03*
X920293Y629225D03*
X945693Y603825D03*
X945693Y629225D03*
X971093Y603825D03*
X971093Y629225D03*
X996493Y603825D03*
X996493Y629225D03*
X1072693Y603825D03*
X1072693Y629225D03*
X1098093Y603825D03*
X1098093Y629225D03*
X936508Y545880D03*
X1056808Y495240D03*
D16*
X918808Y518220D02*
X911828Y518220D01*
X918808Y518220D02*
X918808Y511240D01*
X911828Y511240D01*
X911828Y518220D01*
X911828Y516040D02*
X918808Y516040D01*
X918808Y535760D02*
X911828Y535760D01*
X918808Y535760D02*
X918808Y528780D01*
X911828Y528780D01*
X911828Y535760D01*
X911828Y533580D02*
X918808Y533580D01*
D17*
X917618Y685850D03*
X922618Y685850D03*
X927618Y685850D03*
X932618Y685850D03*
X937618Y685850D03*
X942618Y685850D03*
X947618Y685850D03*
X952618Y685850D03*
X957618Y685850D03*
X962618Y685850D03*
X967618Y685850D03*
X972618Y685850D03*
X997618Y685850D03*
X1002618Y685850D03*
X1007618Y685850D03*
X1012618Y685850D03*
X1017618Y685850D03*
X1022618Y685850D03*
X1027618Y685850D03*
X1032618Y685850D03*
X1037618Y685850D03*
X1042618Y685850D03*
X1047618Y685850D03*
X1052618Y685850D03*
X1057618Y685850D03*
X1062618Y685850D03*
X1067618Y685850D03*
X1072618Y685850D03*
X1077618Y685850D03*
X1082618Y685850D03*
X1087618Y685850D03*
X1092618Y685850D03*
X1097618Y685850D03*
X1102618Y685850D03*
D18*
X991118Y488600D03*
X949118Y488600D03*
X970118Y501600D03*
D15*
X1021893Y603825D03*
X1021893Y629225D03*
X1047293Y603825D03*
X1047293Y629225D03*
D10*
X1326363Y647700D03*
X1142213Y495300D03*
D11*
X1185963Y520500D03*
X1198663Y520500D03*
X1211363Y520500D03*
X1224063Y520500D03*
X1236763Y520500D03*
X1249463Y520500D03*
X1262163Y520500D03*
X1274863Y520500D03*
X1274863Y576500D03*
X1262163Y576500D03*
X1249463Y576500D03*
X1236763Y576500D03*
X1224063Y576500D03*
X1211363Y576500D03*
X1198663Y576500D03*
X1185963Y576500D03*
D12*
X1323913Y578500D03*
X1306913Y578500D03*
X1306913Y498500D03*
X1323913Y498500D03*
X1236913Y498500D03*
X1253913Y498500D03*
D13*
X1140413Y555000D03*
X1140413Y572000D03*
D14*
X1326913Y520000D03*
X1303913Y557000D03*
X1303913Y520000D03*
X1326913Y557000D03*
D15*
X1145388Y603825D03*
X1145388Y629225D03*
X1170788Y603825D03*
X1170788Y629225D03*
X1196188Y603825D03*
X1196188Y629225D03*
X1221588Y603825D03*
X1221588Y629225D03*
X1297788Y603825D03*
X1297788Y629225D03*
X1323188Y603825D03*
X1323188Y629225D03*
X1161603Y545880D03*
X1281903Y495240D03*
D16*
X1143903Y518220D02*
X1136923Y518220D01*
X1143903Y518220D02*
X1143903Y511240D01*
X1136923Y511240D01*
X1136923Y518220D01*
X1136923Y516040D02*
X1143903Y516040D01*
X1143903Y535760D02*
X1136923Y535760D01*
X1143903Y535760D02*
X1143903Y528780D01*
X1136923Y528780D01*
X1136923Y535760D01*
X1136923Y533580D02*
X1143903Y533580D01*
D17*
X1142713Y685850D03*
X1147713Y685850D03*
X1152713Y685850D03*
X1157713Y685850D03*
X1162713Y685850D03*
X1167713Y685850D03*
X1172713Y685850D03*
X1177713Y685850D03*
X1182713Y685850D03*
X1187713Y685850D03*
X1192713Y685850D03*
X1197713Y685850D03*
X1222713Y685850D03*
X1227713Y685850D03*
X1232713Y685850D03*
X1237713Y685850D03*
X1242713Y685850D03*
X1247713Y685850D03*
X1252713Y685850D03*
X1257713Y685850D03*
X1262713Y685850D03*
X1267713Y685850D03*
X1272713Y685850D03*
X1277713Y685850D03*
X1282713Y685850D03*
X1287713Y685850D03*
X1292713Y685850D03*
X1297713Y685850D03*
X1302713Y685850D03*
X1307713Y685850D03*
X1312713Y685850D03*
X1317713Y685850D03*
X1322713Y685850D03*
X1327713Y685850D03*
D18*
X1216213Y488600D03*
X1174213Y488600D03*
X1195213Y501600D03*
D15*
X1246988Y603825D03*
X1246988Y629225D03*
X1272388Y603825D03*
X1272388Y629225D03*
D10*
X1551432Y647700D03*
X1367282Y495300D03*
D11*
X1411032Y520500D03*
X1423732Y520500D03*
X1436432Y520500D03*
X1449132Y520500D03*
X1461832Y520500D03*
X1474532Y520500D03*
X1487232Y520500D03*
X1499932Y520500D03*
X1499932Y576500D03*
X1487232Y576500D03*
X1474532Y576500D03*
X1461832Y576500D03*
X1449132Y576500D03*
X1436432Y576500D03*
X1423732Y576500D03*
X1411032Y576500D03*
D12*
X1548982Y578500D03*
X1531982Y578500D03*
X1531982Y498500D03*
X1548982Y498500D03*
X1461982Y498500D03*
X1478982Y498500D03*
D13*
X1365482Y555000D03*
X1365482Y572000D03*
D14*
X1551982Y520000D03*
X1528982Y557000D03*
X1528982Y520000D03*
X1551982Y557000D03*
D15*
X1370457Y603825D03*
X1370457Y629225D03*
X1395857Y603825D03*
X1395857Y629225D03*
X1421257Y603825D03*
X1421257Y629225D03*
X1446657Y603825D03*
X1446657Y629225D03*
X1522857Y603825D03*
X1522857Y629225D03*
X1548257Y603825D03*
X1548257Y629225D03*
X1386672Y545880D03*
X1506972Y495240D03*
D16*
X1368972Y518220D02*
X1361992Y518220D01*
X1368972Y518220D02*
X1368972Y511240D01*
X1361992Y511240D01*
X1361992Y518220D01*
X1361992Y516040D02*
X1368972Y516040D01*
X1368972Y535760D02*
X1361992Y535760D01*
X1368972Y535760D02*
X1368972Y528780D01*
X1361992Y528780D01*
X1361992Y535760D01*
X1361992Y533580D02*
X1368972Y533580D01*
D17*
X1367782Y685850D03*
X1372782Y685850D03*
X1377782Y685850D03*
X1382782Y685850D03*
X1387782Y685850D03*
X1392782Y685850D03*
X1397782Y685850D03*
X1402782Y685850D03*
X1407782Y685850D03*
X1412782Y685850D03*
X1417782Y685850D03*
X1422782Y685850D03*
X1447782Y685850D03*
X1452782Y685850D03*
X1457782Y685850D03*
X1462782Y685850D03*
X1467782Y685850D03*
X1472782Y685850D03*
X1477782Y685850D03*
X1482782Y685850D03*
X1487782Y685850D03*
X1492782Y685850D03*
X1497782Y685850D03*
X1502782Y685850D03*
X1507782Y685850D03*
X1512782Y685850D03*
X1517782Y685850D03*
X1522782Y685850D03*
X1527782Y685850D03*
X1532782Y685850D03*
X1537782Y685850D03*
X1542782Y685850D03*
X1547782Y685850D03*
X1552782Y685850D03*
D18*
X1441282Y488600D03*
X1399282Y488600D03*
X1420282Y501600D03*
D15*
X1472057Y603825D03*
X1472057Y629225D03*
X1497457Y603825D03*
X1497457Y629225D03*
D10*
X1776501Y647700D03*
X1592351Y495300D03*
D11*
X1636101Y520500D03*
X1648801Y520500D03*
X1661501Y520500D03*
X1674201Y520500D03*
X1686901Y520500D03*
X1699601Y520500D03*
X1712301Y520500D03*
X1725001Y520500D03*
X1725001Y576500D03*
X1712301Y576500D03*
X1699601Y576500D03*
X1686901Y576500D03*
X1674201Y576500D03*
X1661501Y576500D03*
X1648801Y576500D03*
X1636101Y576500D03*
D12*
X1774051Y578500D03*
X1757051Y578500D03*
X1757051Y498500D03*
X1774051Y498500D03*
X1687051Y498500D03*
X1704051Y498500D03*
D13*
X1590551Y555000D03*
X1590551Y572000D03*
D14*
X1777051Y520000D03*
X1754051Y557000D03*
X1754051Y520000D03*
X1777051Y557000D03*
D15*
X1595526Y603825D03*
X1595526Y629225D03*
X1620926Y603825D03*
X1620926Y629225D03*
X1646326Y603825D03*
X1646326Y629225D03*
X1671726Y603825D03*
X1671726Y629225D03*
X1747926Y603825D03*
X1747926Y629225D03*
X1773326Y603825D03*
X1773326Y629225D03*
X1611741Y545880D03*
X1732041Y495240D03*
D16*
X1594041Y518220D02*
X1587061Y518220D01*
X1594041Y518220D02*
X1594041Y511240D01*
X1587061Y511240D01*
X1587061Y518220D01*
X1587061Y516040D02*
X1594041Y516040D01*
X1594041Y535760D02*
X1587061Y535760D01*
X1594041Y535760D02*
X1594041Y528780D01*
X1587061Y528780D01*
X1587061Y535760D01*
X1587061Y533580D02*
X1594041Y533580D01*
D17*
X1592851Y685850D03*
X1597851Y685850D03*
X1602851Y685850D03*
X1607851Y685850D03*
X1612851Y685850D03*
X1617851Y685850D03*
X1622851Y685850D03*
X1627851Y685850D03*
X1632851Y685850D03*
X1637851Y685850D03*
X1642851Y685850D03*
X1647851Y685850D03*
X1672851Y685850D03*
X1677851Y685850D03*
X1682851Y685850D03*
X1687851Y685850D03*
X1692851Y685850D03*
X1697851Y685850D03*
X1702851Y685850D03*
X1707851Y685850D03*
X1712851Y685850D03*
X1717851Y685850D03*
X1722851Y685850D03*
X1727851Y685850D03*
X1732851Y685850D03*
X1737851Y685850D03*
X1742851Y685850D03*
X1747851Y685850D03*
X1752851Y685850D03*
X1757851Y685850D03*
X1762851Y685850D03*
X1767851Y685850D03*
X1772851Y685850D03*
X1777851Y685850D03*
D18*
X1666351Y488600D03*
X1624351Y488600D03*
X1645351Y501600D03*
D15*
X1697126Y603825D03*
X1697126Y629225D03*
X1722526Y603825D03*
X1722526Y629225D03*
D10*
X-26238Y635000D03*
X1821815Y635000D03*
D19*
X-35293Y63500D02*
X-35290Y63722D01*
X-35282Y63944D01*
X-35268Y64166D01*
X-35249Y64388D01*
X-35225Y64608D01*
X-35195Y64829D01*
X-35160Y65048D01*
X-35119Y65267D01*
X-35073Y65484D01*
X-35022Y65700D01*
X-34965Y65915D01*
X-34903Y66129D01*
X-34836Y66340D01*
X-34764Y66551D01*
X-34686Y66759D01*
X-34604Y66965D01*
X-34516Y67169D01*
X-34424Y67372D01*
X-34326Y67571D01*
X-34224Y67768D01*
X-34117Y67963D01*
X-34005Y68155D01*
X-33888Y68344D01*
X-33767Y68531D01*
X-33641Y68714D01*
X-33511Y68894D01*
X-33376Y69071D01*
X-33238Y69244D01*
X-33095Y69414D01*
X-32947Y69581D01*
X-32796Y69744D01*
X-32641Y69903D01*
X-32482Y70058D01*
X-32319Y70209D01*
X-32152Y70357D01*
X-31982Y70500D01*
X-31809Y70638D01*
X-31632Y70773D01*
X-31452Y70903D01*
X-31269Y71029D01*
X-31082Y71150D01*
X-30893Y71267D01*
X-30701Y71379D01*
X-30506Y71486D01*
X-30309Y71588D01*
X-30110Y71686D01*
X-29907Y71778D01*
X-29703Y71866D01*
X-29497Y71948D01*
X-29289Y72026D01*
X-29078Y72098D01*
X-28867Y72165D01*
X-28653Y72227D01*
X-28438Y72284D01*
X-28222Y72335D01*
X-28005Y72381D01*
X-27786Y72422D01*
X-27567Y72457D01*
X-27346Y72487D01*
X-27126Y72511D01*
X-26904Y72530D01*
X-26682Y72544D01*
X-26460Y72552D01*
X-26238Y72555D01*
X-26016Y72552D01*
X-25794Y72544D01*
X-25572Y72530D01*
X-25350Y72511D01*
X-25130Y72487D01*
X-24909Y72457D01*
X-24690Y72422D01*
X-24471Y72381D01*
X-24254Y72335D01*
X-24038Y72284D01*
X-23823Y72227D01*
X-23609Y72165D01*
X-23398Y72098D01*
X-23187Y72026D01*
X-22979Y71948D01*
X-22773Y71866D01*
X-22569Y71778D01*
X-22366Y71686D01*
X-22167Y71588D01*
X-21970Y71486D01*
X-21775Y71379D01*
X-21583Y71267D01*
X-21394Y71150D01*
X-21207Y71029D01*
X-21024Y70903D01*
X-20844Y70773D01*
X-20667Y70638D01*
X-20494Y70500D01*
X-20324Y70357D01*
X-20157Y70209D01*
X-19994Y70058D01*
X-19835Y69903D01*
X-19680Y69744D01*
X-19529Y69581D01*
X-19381Y69414D01*
X-19238Y69244D01*
X-19100Y69071D01*
X-18965Y68894D01*
X-18835Y68714D01*
X-18709Y68531D01*
X-18588Y68344D01*
X-18471Y68155D01*
X-18359Y67963D01*
X-18252Y67768D01*
X-18150Y67571D01*
X-18052Y67372D01*
X-17960Y67169D01*
X-17872Y66965D01*
X-17790Y66759D01*
X-17712Y66551D01*
X-17640Y66340D01*
X-17573Y66129D01*
X-17511Y65915D01*
X-17454Y65700D01*
X-17403Y65484D01*
X-17357Y65267D01*
X-17316Y65048D01*
X-17281Y64829D01*
X-17251Y64608D01*
X-17227Y64388D01*
X-17208Y64166D01*
X-17194Y63944D01*
X-17186Y63722D01*
X-17183Y63500D01*
X-17186Y63278D01*
X-17194Y63056D01*
X-17208Y62834D01*
X-17227Y62612D01*
X-17251Y62392D01*
X-17281Y62171D01*
X-17316Y61952D01*
X-17357Y61733D01*
X-17403Y61516D01*
X-17454Y61300D01*
X-17511Y61085D01*
X-17573Y60871D01*
X-17640Y60660D01*
X-17712Y60449D01*
X-17790Y60241D01*
X-17872Y60035D01*
X-17960Y59831D01*
X-18052Y59628D01*
X-18150Y59429D01*
X-18252Y59232D01*
X-18359Y59037D01*
X-18471Y58845D01*
X-18588Y58656D01*
X-18709Y58469D01*
X-18835Y58286D01*
X-18965Y58106D01*
X-19100Y57929D01*
X-19238Y57756D01*
X-19381Y57586D01*
X-19529Y57419D01*
X-19680Y57256D01*
X-19835Y57097D01*
X-19994Y56942D01*
X-20157Y56791D01*
X-20324Y56643D01*
X-20494Y56500D01*
X-20667Y56362D01*
X-20844Y56227D01*
X-21024Y56097D01*
X-21207Y55971D01*
X-21394Y55850D01*
X-21583Y55733D01*
X-21775Y55621D01*
X-21970Y55514D01*
X-22167Y55412D01*
X-22366Y55314D01*
X-22569Y55222D01*
X-22773Y55134D01*
X-22979Y55052D01*
X-23187Y54974D01*
X-23398Y54902D01*
X-23609Y54835D01*
X-23823Y54773D01*
X-24038Y54716D01*
X-24254Y54665D01*
X-24471Y54619D01*
X-24690Y54578D01*
X-24909Y54543D01*
X-25130Y54513D01*
X-25350Y54489D01*
X-25572Y54470D01*
X-25794Y54456D01*
X-26016Y54448D01*
X-26238Y54445D01*
X-26460Y54448D01*
X-26682Y54456D01*
X-26904Y54470D01*
X-27126Y54489D01*
X-27346Y54513D01*
X-27567Y54543D01*
X-27786Y54578D01*
X-28005Y54619D01*
X-28222Y54665D01*
X-28438Y54716D01*
X-28653Y54773D01*
X-28867Y54835D01*
X-29078Y54902D01*
X-29289Y54974D01*
X-29497Y55052D01*
X-29703Y55134D01*
X-29907Y55222D01*
X-30110Y55314D01*
X-30309Y55412D01*
X-30506Y55514D01*
X-30701Y55621D01*
X-30893Y55733D01*
X-31082Y55850D01*
X-31269Y55971D01*
X-31452Y56097D01*
X-31632Y56227D01*
X-31809Y56362D01*
X-31982Y56500D01*
X-32152Y56643D01*
X-32319Y56791D01*
X-32482Y56942D01*
X-32641Y57097D01*
X-32796Y57256D01*
X-32947Y57419D01*
X-33095Y57586D01*
X-33238Y57756D01*
X-33376Y57929D01*
X-33511Y58106D01*
X-33641Y58286D01*
X-33767Y58469D01*
X-33888Y58656D01*
X-34005Y58845D01*
X-34117Y59037D01*
X-34224Y59232D01*
X-34326Y59429D01*
X-34424Y59628D01*
X-34516Y59831D01*
X-34604Y60035D01*
X-34686Y60241D01*
X-34764Y60449D01*
X-34836Y60660D01*
X-34903Y60871D01*
X-34965Y61085D01*
X-35022Y61300D01*
X-35073Y61516D01*
X-35119Y61733D01*
X-35160Y61952D01*
X-35195Y62171D01*
X-35225Y62392D01*
X-35249Y62612D01*
X-35268Y62834D01*
X-35282Y63056D01*
X-35290Y63278D01*
X-35293Y63500D01*
D20*
X-26238Y63500D03*
M02*
